<svg xmlns="http://www.w3.org/2000/svg" width="43" height="26" viewBox="0 0 43 26" fill="none">
    <g clip-path="url(#clip0_2785_19139)">
        <path d="M24.2745 13.826L27.0806 9.22395L21.5035 0L15.9193 9.22395L18.7254 13.826L18.7184 16.5648H16.6892L18.4176 19.6152L20.3069 16.6113L21.5035 18.6404L22.693 16.6113L24.5823 19.6152L26.3107 16.5648H24.2814L24.2744 13.826H24.2745ZM21.5035 15.696L17.5778 9.25052L19.5372 6.02106L21.5035 2.79825L23.4697 6.02106L25.429 9.25052L21.5035 15.696Z" fill="#FBF9ED"/>
        <path d="M23.4698 6.02164L25.4292 9.25096L21.5035 2.79883L23.4698 6.02164Z" fill="#EDEDED"/>
        <path d="M30.5094 11.3788L32.2659 14.2701L30.7194 16.5645H27.3536L28.1513 17.8775H33.8894L32.084 20.835L31.8251 21.2661L30.9925 19.92H31.7272L32.4969 18.6137H28.5992L29.5859 20.2383L31.0204 22.5857H30.2366L26.8918 17.3138L25.0514 20.3443L24.6316 21.0207L23.6869 22.5857H22.9172L22.9102 22.5724L24.1837 20.3177L22.6793 17.957L22.6723 17.9504L21.4968 19.7807L20.3213 17.957L18.8167 20.3177L20.0902 22.5724L20.0832 22.5857H19.3135L18.3618 21.0207L17.949 20.3443L16.1086 17.3138L12.7638 22.5857H11.9801L13.4147 20.2383L14.4012 18.6137H10.5036L11.2663 19.92H12.008L11.1753 21.2661L10.9164 20.835L9.11105 17.8775H14.8491L15.6469 16.5645H12.274L10.7346 14.2701L12.491 11.3788L0 5.55664L5.03129 13.8257L6.52882 16.2793L6.70376 16.5645L8.94297 20.2382L10.3914 22.6188L11.1752 23.9052L21.4965 23.1758L31.8248 23.9052L32.6016 22.6188L34.057 20.2382L36.2962 16.5645L36.4712 16.2793L37.9617 13.8257L43 5.55664L30.5094 11.3788ZM8.04021 16.1201L3.51974 8.69989L10.5592 11.9823L8.04006 16.1201H8.04021ZM14.436 22.5856L15.2757 21.2063L16.1153 19.8337L16.948 21.2063L17.7876 22.5856H14.4358H14.436ZM25.2122 22.5856L26.0449 21.2063L26.8845 19.8337L27.7242 21.2063L28.5639 22.5856H25.2121H25.2122ZM34.9458 16.1201L32.4266 11.9823L39.4661 8.69989L34.9456 16.1201H34.9458Z" fill="#FBF9ED"/>
        <path d="M31.4015 24.5962L30.5473 25.9996L21.5018 25.3586L12.452 26.0005L11.598 24.5971L21.5018 23.8945L31.4015 24.5962Z" fill="#FBF9ED"/>
    </g>
    <defs>
        <clipPath id="clip0_2785_19139">
            <rect width="43" height="26" fill="white"/>
        </clipPath>
    </defs>
</svg>