<svg xmlns="http://www.w3.org/2000/svg" width="41" height="27" viewBox="0 0 41 27" fill="none">
    <g clip-path="url(#clip0_182_15395)">
        <path d="M41 5.77062L36.196 14.3579L34.775 16.9056L34.6082 17.2018L32.4731 21.0167L31.0854 23.4889L30.3448 24.8248L20.4967 24.0673L10.6554 24.8248L9.90811 23.4889L8.52701 21.0167L6.39181 17.2018L6.225 16.9056L4.79727 14.3579L0 5.77062L11.9098 11.8167L10.235 14.8192L11.7029 17.2018L17.8478 16.7544L17.8545 14.3579L15.1791 9.57881L20.5033 0L25.8209 9.57881L23.1455 14.3579L23.1522 16.7544L29.2904 17.2018L30.7651 14.8192L29.0904 11.8167L41 5.77062Z" fill="#FBF9ED"/>
        <path d="M29.941 25.5412L29.1265 26.9985L20.5017 26.3328L11.8729 26.9996L11.0586 25.5422L20.5017 24.8125L29.941 25.5412Z" fill="#FBF9ED"/>
    </g>
    <defs>
        <clipPath id="clip0_182_15395">
            <rect width="41" height="27" fill="white"/>
        </clipPath>
    </defs>
</svg>