<svg width="11" height="12" viewBox="0 0 11 12" fill="none" xmlns="http://www.w3.org/2000/svg">
    <path d="M0.881348 12.0001C0.895164 11.4302 1.01778 10.8974 1.22588 10.3836C1.63691 9.37247 2.56085 8.55215 3.50465 7.99778C3.63158 7.92352 3.71102 7.92957 3.83105 8.01764C4.88797 9.11428 6.09859 8.87855 7.22718 7.97706C7.29626 7.92698 7.43701 7.89416 7.49918 7.93043C8.9844 8.79565 9.86689 10.1885 10.0171 11.8904C10.0197 11.9224 10.0128 11.9543 10.0094 12.0001H0.881348Z" fill="#9D9D9D"/>
    <path d="M7.30734 5.67715C7.41528 5.93016 7.47314 6.21252 7.47141 6.51129C7.46277 7.63384 6.56387 8.51028 5.42579 8.5051C4.30497 8.49992 3.41816 7.59325 3.42679 6.46293C3.42938 6.1823 3.48637 5.91721 3.58913 5.67715H3.57704L3.40002 5.37148L3.7696 5.34384L5.44996 5.21777L7.1286 5.34384L7.49904 5.37148L7.32202 5.67802H7.30734V5.67715Z" fill="#9D9D9D"/>
    <path d="M10 1.16193L8.94508 2.89199L8.63332 3.40473L8.59664 3.46427L8.12769 4.23338L7.82292 4.73123L7.66049 5L7.07103 4.95865L5.49913 4.84783L3.92635 4.95865L3.33864 5L3.17446 4.73123L2.87143 4.23338L2.40248 3.46427L2.36581 3.40473L2.05317 2.89199L1 1.16193L3.61372 2.38009L3.24607 2.98462L3.56831 3.46427L4.91752 3.37496L4.91927 2.89199L4.33155 1.92937L5.5 0L6.66757 1.92937L6.08073 2.89199L6.0816 3.37496L7.42907 3.46427L7.75306 2.98462L7.38541 2.38009L10 1.16193Z" fill="#9D9D9D"/>
</svg>
