<svg width="40" height="40" viewBox="0 0 24 24" fill="none" xmlns="http://www.w3.org/2000/svg">
<path d="M3.65788 23L18.9539 0.599998H20.3299L5.03388 23H3.65788ZM5.28988 12.568C4.32988 12.568 3.47654 12.3227 2.72988 11.832C1.98321 11.32 1.39654 10.616 0.969875 9.72C0.564542 8.80267 0.361875 7.736 0.361875 6.52C0.361875 5.304 0.564542 4.248 0.969875 3.352C1.39654 2.43467 1.98321 1.73067 2.72988 1.24C3.47654 0.727999 4.32988 0.471998 5.28988 0.471998C6.27121 0.471998 7.13521 0.727999 7.88188 1.24C8.62854 1.73067 9.20454 2.43467 9.60988 3.352C10.0365 4.248 10.2499 5.304 10.2499 6.52C10.2499 7.736 10.0365 8.80267 9.60988 9.72C9.20454 10.616 8.62854 11.32 7.88188 11.832C7.13521 12.3227 6.27121 12.568 5.28988 12.568ZM5.32188 11.48C6.43121 11.48 7.32721 11.0427 8.00988 10.168C8.69254 9.29333 9.03388 8.07733 9.03388 6.52C9.03388 4.96267 8.69254 3.74667 8.00988 2.872C7.32721 1.99733 6.43121 1.56 5.32188 1.56C4.19121 1.56 3.28454 1.99733 2.60188 2.872C1.91921 3.74667 1.57788 4.96267 1.57788 6.52C1.57788 8.056 1.91921 9.272 2.60188 10.168C3.28454 11.0427 4.19121 11.48 5.32188 11.48ZM18.6979 23.128C17.7379 23.128 16.8739 22.8827 16.1059 22.392C15.3592 21.88 14.7725 21.176 14.3459 20.28C13.9405 19.3627 13.7379 18.296 13.7379 17.08C13.7379 15.864 13.9405 14.808 14.3459 13.912C14.7725 12.9947 15.3592 12.2907 16.1059 11.8C16.8739 11.288 17.7379 11.032 18.6979 11.032C19.6792 11.032 20.5325 11.288 21.2579 11.8C22.0045 12.2907 22.5805 12.9947 22.9859 13.912C23.4125 14.808 23.6259 15.864 23.6259 17.08C23.6259 18.296 23.4125 19.3627 22.9859 20.28C22.5805 21.176 22.0045 21.88 21.2579 22.392C20.5325 22.8827 19.6792 23.128 18.6979 23.128ZM18.6979 22.04C19.8072 22.04 20.7032 21.6027 21.3859 20.728C22.0685 19.832 22.4099 18.616 22.4099 17.08C22.4099 15.544 22.0685 14.3387 21.3859 13.464C20.7032 12.568 19.8072 12.12 18.6979 12.12C17.5672 12.12 16.6605 12.5573 15.9779 13.432C15.2952 14.3067 14.9539 15.5227 14.9539 17.08C14.9539 18.6373 15.2952 19.8533 15.9779 20.728C16.6605 21.6027 17.5672 22.04 18.6979 22.04Z" fill="#C6A465"/>
</svg>
