<svg width="11" height="24" viewBox="0 0 11 24" fill="none" xmlns="http://www.w3.org/2000/svg">
    <path d="M4.13025 5.12186C3.50874 5.79922 2.95377 6.3986 2.40398 7.00359C2.00665 7.43994 1.53438 7.60576 0.992336 7.43853C0.0432754 7.14622 -0.309473 5.90181 0.30816 5.06284C0.38181 4.96236 0.466444 4.87172 0.550432 4.78107C1.83415 3.38137 3.11722 1.98097 4.40224 0.583381C5.11742 -0.194462 5.88559 -0.194462 6.60013 0.583381C7.92326 2.02313 9.25091 3.45796 10.5631 4.90825C11.3383 5.7655 11.0379 7.11952 10.0094 7.43923C9.48091 7.60366 9.01187 7.45329 8.621 7.02818C8.13452 6.49908 7.64868 5.96786 7.1622 5.43876C7.08791 5.35796 7.00909 5.28277 6.87083 5.14224L6.87083 5.61935C6.87083 11.1935 6.86049 16.767 6.87923 22.3412C6.88246 23.4536 6.10913 24.0297 5.45144 23.9988C4.76015 23.9672 4.18452 23.3735 4.13735 22.6216C4.12766 22.4698 4.13025 22.3174 4.13025 22.1649C4.13025 16.6609 4.13025 11.1577 4.13025 5.65378C4.13025 5.51535 4.13025 5.37693 4.13025 5.12186Z" fill="#800020"/>
</svg>
