<svg width="27" height="25" viewBox="0 0 27 25" fill="none" xmlns="http://www.w3.org/2000/svg">
    <path d="M3.53539 20.5348C2.9845 20.8757 2.44233 21.2161 1.89484 21.5481C1.48513 21.7963 1.05373 21.8156 0.632322 21.5892C0.213892 21.3645 0.00170092 21.0018 0.00127569 20.5332C-0.000637863 18.4329 1.30294e-08 16.3325 0.000637863 14.2323C0.00085048 13.3121 0.898731 12.7423 1.76153 13.1162C3.75481 13.9803 5.74767 14.845 7.73925 15.7127C8.17597 15.9029 8.42983 16.2382 8.4732 16.7035C8.51828 17.1873 8.31714 17.569 7.90084 17.8308C7.18028 18.2838 6.45377 18.7279 5.73002 19.1757C5.70344 19.1921 5.67772 19.2102 5.63605 19.2376C5.78488 19.3872 5.92627 19.5347 6.07361 19.6763C6.80565 20.3797 7.62465 20.9677 8.53295 21.4359C9.52119 21.9452 10.5681 22.2867 11.6703 22.4662C12.538 22.6076 13.4108 22.6394 14.2857 22.5638C15.4517 22.4629 16.5724 22.1837 17.6398 21.7095C19.5252 20.872 21.0269 19.6011 22.1468 17.9006C22.838 16.8508 23.3073 15.7125 23.5703 14.4917C23.7121 13.8337 24.3514 13.4255 25.0229 13.558C25.683 13.6885 26.1108 14.3114 25.9748 14.9688C25.7685 15.9657 25.4377 16.9233 24.9884 17.8416C24.3725 19.1012 23.562 20.2272 22.5635 21.2261C21.6025 22.1874 20.5099 22.9753 19.2911 23.5945C18.2202 24.1385 17.0908 24.5251 15.905 24.7538C14.9317 24.9416 13.9496 25.0263 12.9581 24.9929C11.1762 24.9326 9.47612 24.5378 7.86406 23.7898C6.20479 23.02 4.78388 21.9465 3.58642 20.5884C3.57281 20.5728 3.55772 20.5585 3.53518 20.535L3.53539 20.5348Z" fill="#9D9D9D"/>
    <path d="M22.9157 4.01418C23.2835 3.79283 23.6469 3.5743 24.0105 3.35577C24.3864 3.12998 24.7587 2.89833 25.1391 2.6796C25.922 2.22923 26.9163 2.70704 26.9957 3.56724C26.9993 3.60739 26.9997 3.64775 26.9997 3.6881C26.9999 5.72831 27.0001 7.76831 26.9999 9.80851C26.9999 10.6893 26.1048 11.248 25.2579 10.8905C23.2757 10.0539 21.2952 9.21386 19.3145 8.37385C18.856 8.17934 18.5892 7.84236 18.5574 7.36434C18.5265 6.89904 18.7402 6.54047 19.1525 6.29006C19.6671 5.97791 20.1823 5.66656 20.6972 5.35461C20.7298 5.33483 20.7613 5.31324 20.8062 5.28419C20.7099 5.1952 20.6188 5.10864 20.5248 5.0249C19.089 3.74682 17.4147 2.90156 15.4876 2.52161C14.405 2.30812 13.3125 2.26676 12.2142 2.38944C10.0006 2.63682 8.06541 3.47643 6.41931 4.90201C4.95385 6.17101 3.95493 7.72331 3.41597 9.54035C3.21012 10.2341 2.52039 10.5997 1.82112 10.3789C1.22519 10.1909 0.876825 9.58211 1.04031 8.98888C1.25039 8.22675 1.5492 7.4955 1.91535 6.78887C2.56189 5.54166 3.41067 4.43429 4.45471 3.46312C5.51695 2.47479 6.72469 1.68745 8.07494 1.09744C9.21131 0.600858 10.3977 0.2657 11.6372 0.11376C15.1608 -0.318051 18.348 0.479184 21.1912 2.5099C21.7882 2.93627 22.3314 3.42074 22.839 3.94154C22.8604 3.96353 22.8839 3.98371 22.9159 4.01378L22.9157 4.01418Z" fill="#9D9D9D"/>
</svg>
