<svg width="15" height="15" viewBox="0 0 15 15" fill="none" xmlns="http://www.w3.org/2000/svg">
    <circle cx="7.5" cy="7.5" r="7.5" fill="#282828"/>
    <g clip-path="url(#clip0_2833_36677)">
        <path d="M12 5.28236L10.9455 7.19064L10.6335 7.7568L10.5969 7.82262L10.1282 8.67038L9.82362 9.21975L9.66104 9.51662L7.49927 9.34829L5.33899 9.51662L5.17495 9.21975L4.87178 8.67038L4.40308 7.82262L4.36646 7.7568L4.05306 7.19064L3 5.28236L5.61434 6.62594L5.24671 7.29315L5.56892 7.82262L6.91781 7.72321L6.91928 7.19064L6.33199 6.12863L7.50073 4L8.66801 6.12863L8.08072 7.19064L8.08219 7.72321L9.42961 7.82262L9.75332 7.29315L9.38569 6.62594L12 5.28236Z" fill="#C6A465"/>
        <path d="M9.57264 9.6756L9.39387 9.99946L7.50062 9.85152L5.60648 9.99969L5.42773 9.67583L7.50062 9.51367L9.57264 9.6756Z" fill="#C6A465"/>
    </g>
    <defs>
        <clipPath id="clip0_2833_36677">
            <rect width="9" height="6" fill="white" transform="translate(3 4)"/>
        </clipPath>
    </defs>
</svg>
