<svg xmlns="http://www.w3.org/2000/svg" width="33" height="33" viewBox="0 0 33 33" fill="none">
    <path d="M13.6398 9.0444L11.6122 9.4328L6.21114 4.03175L5.55187 1.56667L0.62172 0.22789L1.9605 5.15804L4.42558 5.81731L9.82663 11.2184L9.45068 13.2335L7.91731 14.7669L11.6464 15.8901L11.6426 15.8738L11.2682 14.3505L27.8442 30.9265L32.6506 32.2318L31.3538 27.4573L14.7583 10.8619L16.2637 11.2324L16.2964 11.2402L15.1732 7.51103L13.6398 9.0444ZM30.0796 27.8784C30.1777 27.9765 30.1777 28.1369 30.0796 28.2349C29.9816 28.333 29.8204 28.3338 29.7224 28.2357L14.64 13.1534C14.5412 13.0545 14.5412 12.8942 14.64 12.7953C14.6891 12.7463 14.7537 12.7222 14.8183 12.7214C14.8829 12.7222 14.9475 12.7463 14.9973 12.7961L30.0796 27.8784Z" fill="#FBF9ED"/>
</svg>