<svg xmlns="http://www.w3.org/2000/svg" width="26" height="26" viewBox="0 0 26 26" fill="none">
    <path d="M16.86 0C17.0801 0 17.2993 0 17.5194 0C17.6474 0.0356988 17.7773 0.0674311 17.9042 0.107096C18.5507 0.311373 19.0049 0.74075 19.3361 1.31986C20.3317 3.06514 21.3353 4.80545 22.325 6.5537C22.5114 6.88293 22.673 7.20719 23.1203 7.20124C23.1441 7.20124 23.1688 7.21413 23.1926 7.22206C24.221 7.59393 24.8189 8.43582 24.8259 9.54149C24.8328 10.5817 24.8388 11.6219 24.8199 12.6612C24.815 12.9587 24.8675 13.1431 25.163 13.2889C25.639 13.5229 25.8532 13.983 26 14.4719V18.6358C25.9812 18.6804 25.9574 18.724 25.9435 18.7706C25.7957 19.2764 25.4943 19.6621 25.0193 19.8892C24.8586 19.9655 24.8219 20.0528 24.8229 20.2144C24.8289 21.3231 24.8318 22.4317 24.8249 23.5404C24.816 24.9485 23.8045 25.9957 22.4321 25.9967C15.7464 26.0016 9.05969 26.0026 2.374 25.9887C2.03089 25.9887 1.65903 25.9024 1.35062 25.7537C0.43335 25.3144 0 24.5459 0 23.5305C0 18.8757 0 14.221 0 9.56628C0 9.49885 0 9.43043 0.00297494 9.363C0.0545406 8.15519 0.986689 7.1824 2.19452 7.11497C2.84404 7.07828 3.49754 7.10307 4.14806 7.08224C4.30871 7.07729 4.48522 7.03564 4.62207 6.95531C7.6932 5.17533 10.7544 3.37849 13.8305 1.60843C14.8212 1.03923 15.7474 0.342113 16.86 0ZM23.6111 13.0013C23.6171 12.9279 23.624 12.8793 23.624 12.8307C23.624 11.7132 23.625 10.5966 23.623 9.47902C23.623 9.37093 23.6131 9.25789 23.5843 9.15376C23.4356 8.60242 22.9854 8.27617 22.3696 8.27617C15.7255 8.27518 9.0825 8.27617 2.43846 8.27617C2.38789 8.27617 2.33632 8.27518 2.28674 8.28113C1.82066 8.33269 1.46565 8.56374 1.28914 8.99709C1.20584 9.20037 1.18799 9.44233 1.187 9.66743C1.18105 14.2547 1.18304 18.841 1.18403 23.4283C1.18403 23.5543 1.19196 23.6822 1.20981 23.8071C1.27526 24.2672 1.5321 24.5875 1.96743 24.7333C2.17072 24.8007 2.39879 24.8156 2.61597 24.8156C6.25531 24.8206 9.89466 24.8186 13.533 24.8186C16.4524 24.8186 19.3728 24.8117 22.2922 24.8226C23.1827 24.8265 23.6538 24.2196 23.6319 23.4878C23.6012 22.4476 23.624 21.4064 23.623 20.3652C23.623 20.2839 23.6151 20.2025 23.6091 20.1024C23.4961 20.1024 23.4049 20.1024 23.3136 20.1024C22.2555 20.1024 21.1975 20.1103 20.1404 20.1004C17.9677 20.0796 16.3523 18.2976 16.5605 16.1597C16.7291 14.4263 18.2533 13.0211 19.9995 13.0043C21.1082 12.9934 22.2169 13.0013 23.3255 13.0013C23.4168 13.0013 23.507 13.0013 23.6101 13.0013H23.6111ZM22.0503 18.9005C22.7355 18.9005 23.4207 18.9025 24.1069 18.9005C24.5859 18.8985 24.811 18.6873 24.814 18.2084C24.8209 17.0997 24.8219 15.9911 24.814 14.8824C24.811 14.4154 24.5938 14.1893 24.1307 14.1893C22.7008 14.1893 21.2708 14.1764 19.8419 14.224C18.4813 14.2686 17.4332 15.7838 17.806 17.0977C18.1283 18.2351 18.9871 18.8916 20.1711 18.9005C20.7968 18.9055 21.4235 18.9005 22.0493 18.9005H22.0503ZM6.87013 7.03068C6.87509 7.04952 6.88005 7.06836 6.886 7.08819C7.53553 7.08819 8.18406 7.09613 8.83359 7.08224C8.99325 7.07828 9.17075 7.03465 9.3076 6.95432C12.1943 5.28144 15.077 3.60161 17.9607 1.92278C18.04 1.87716 18.1154 1.8256 18.2037 1.77007C18.164 1.70759 18.1382 1.65504 18.1025 1.6114C17.7257 1.15129 17.1198 1.06501 16.5466 1.3982C14.2758 2.71807 12.0059 4.0409 9.73599 5.36275C8.78104 5.91906 7.82608 6.47437 6.87112 7.03068H6.87013ZM11.5596 7.02671C11.5676 7.04754 11.5755 7.06737 11.5834 7.08819C12.233 7.08819 12.8825 7.09613 13.532 7.08224C13.6837 7.07927 13.8513 7.03365 13.9822 6.95829C15.7097 5.9617 17.4312 4.95717 19.1547 3.95364C19.2261 3.91199 19.2935 3.86539 19.3847 3.80787C19.1904 3.46972 19.0039 3.14645 18.8076 2.80632C16.3731 4.22436 13.9664 5.62553 11.5596 7.02671ZM21.253 7.07233C20.8167 6.30976 20.4031 5.58785 19.9807 4.84909C18.7193 5.58389 17.4788 6.30679 16.2382 7.02969C16.2442 7.04456 16.2491 7.05844 16.2551 7.07332H21.254L21.253 7.07233Z" fill="#C6A465"/>
</svg>