<svg width="50" height="50" viewBox="0 0 50 50" fill="none" xmlns="http://www.w3.org/2000/svg">
    <path d="M48.4827 24.696C48.4827 37.4968 38.0475 47.9168 25.2189 47.9168C12.3903 47.9168 1.95508 37.4964 1.95508 24.696C1.95508 11.8956 12.3903 1.4707 25.2189 1.4707C38.0475 1.4707 48.4827 11.8907 48.4827 24.6956V24.696Z" fill="#EDEDED"/>
    <path d="M25.2275 41.836C15.7791 41.836 8.09229 34.1633 8.09229 24.7324C8.09229 15.3015 15.7791 7.62891 25.2275 7.62891C34.6758 7.62891 42.3627 15.3015 42.3627 24.7324C42.3627 34.1633 34.6758 41.836 25.2275 41.836ZM25.2275 9.33898C16.7238 9.33898 9.80512 16.2445 9.80512 24.7328C9.80512 33.2212 16.7234 40.1267 25.2275 40.1267C33.7316 40.1267 40.6499 33.2212 40.6499 24.7328C40.6499 16.2445 33.7316 9.33898 25.2275 9.33898Z" fill="#C6A465"/>
    <path d="M25.1964 43.1206C15.0359 43.1206 6.77002 34.87 6.77002 24.7283C6.77002 14.5866 15.0363 6.33594 25.1964 6.33594C35.3566 6.33594 43.6229 14.587 43.6229 24.7283C43.6229 34.8696 35.357 43.1206 25.1964 43.1206ZM25.1964 8.47292C16.2164 8.47292 8.91096 15.7652 8.91096 24.7283C8.91096 33.6914 16.2168 40.9837 25.1964 40.9837C34.1761 40.9837 41.4819 33.6914 41.4819 24.7283C41.4819 15.7652 34.1761 8.47292 25.1964 8.47292Z" fill="#C9C9C9"/>
    <path d="M25.1963 48.7752C11.9019 48.7752 1.08643 37.9797 1.08643 24.7098C1.08643 11.44 11.9019 0.644531 25.1963 0.644531C38.4907 0.644531 49.3062 11.4404 49.3062 24.7098C49.3062 37.9793 38.4907 48.7752 25.1963 48.7752ZM25.1963 1.50726C12.3787 1.50726 1.95075 11.9159 1.95075 24.7098C1.95075 37.5038 12.3787 47.9124 25.1963 47.9124C38.0139 47.9124 48.4419 37.5038 48.4419 24.7098C48.4419 11.9159 38.0139 1.50726 25.1963 1.50726Z" fill="#C9C9C9"/>
    <path d="M5.48577 17.192C5.35957 17.22 5.2358 17.2273 5.11245 17.1949C4.90712 17.1414 4.77118 17.013 4.72167 16.8072C4.67135 16.5974 4.73263 16.4147 4.89981 16.2778C5.06537 16.1418 5.25325 16.1219 5.45047 16.2062C5.558 16.2519 5.64443 16.3256 5.71869 16.4152C5.73168 16.4309 5.74466 16.4463 5.76373 16.4694C5.7686 16.3548 5.782 16.2519 5.83191 16.1559C5.94756 15.934 6.20442 15.8218 6.44546 15.8918C6.69055 15.9627 6.85652 16.2009 6.82081 16.4524C6.78023 16.7372 6.59844 16.9085 6.33955 17.0097C6.33021 17.0134 6.32048 17.0162 6.31195 17.0231C6.52905 17.0097 6.73519 16.9514 6.9393 16.8554C6.83786 17.1284 6.73925 17.3929 6.6378 17.6659C6.5469 17.4622 6.42882 17.2823 6.27178 17.1292C6.34036 17.2406 6.37931 17.3609 6.38621 17.4909C6.39798 17.7137 6.3363 17.9049 6.14233 18.0361C5.9508 18.1657 5.68258 18.1451 5.50444 17.9891C5.32873 17.8348 5.27517 17.5728 5.38108 17.3682C5.41151 17.3095 5.44925 17.2548 5.48658 17.1928L5.48577 17.192Z" fill="#C6A465"/>
    <path d="M44.9325 32.2397C45.0599 32.2179 45.1841 32.217 45.3058 32.2555C45.5083 32.3195 45.6378 32.4544 45.6767 32.6622C45.7165 32.874 45.6459 33.0534 45.4722 33.1822C45.2997 33.3098 45.1114 33.3204 44.9183 33.2264C44.8132 33.175 44.7304 33.0972 44.661 33.0044C44.6488 32.9882 44.6367 32.972 44.6188 32.9481C44.6083 33.0624 44.5896 33.1644 44.5348 33.2576C44.4082 33.4735 44.1461 33.5723 43.9087 33.4905C43.6672 33.4075 43.5139 33.1612 43.5622 32.9121C43.6169 32.6298 43.8072 32.4678 44.071 32.3799C44.0807 32.3766 44.0905 32.3746 44.0994 32.3677C43.8819 32.3701 43.6733 32.4183 43.4644 32.5038C43.5796 32.2361 43.6912 31.9769 43.8064 31.7095C43.8872 31.9177 43.9955 32.1032 44.1453 32.2636C44.0824 32.149 44.0495 32.0267 44.0495 31.8967C44.0491 31.6735 44.1205 31.4855 44.3206 31.3644C44.5186 31.2445 44.7852 31.2786 44.9552 31.4434C45.1232 31.6062 45.163 31.8707 45.0473 32.0696C45.0141 32.1267 44.9739 32.1794 44.9329 32.2393L44.9325 32.2397Z" fill="#C6A465"/>
    <path d="M16.9537 4.99154C16.9898 4.8915 17.0219 4.79469 17.0604 4.70032C17.125 4.54195 17.2378 4.42935 17.4013 4.37629C17.6496 4.29609 17.9061 4.37629 18.066 4.58529C18.2169 4.78254 18.2547 5.00086 18.1699 5.2374C18.0084 5.68821 17.8477 6.13942 17.687 6.59063C17.6817 6.60562 17.6768 6.6206 17.6703 6.64045C17.5762 6.59995 17.4857 6.56147 17.396 6.52218C17.0178 6.35692 16.6376 6.19693 16.2627 6.02479C15.8435 5.8324 15.74 5.21431 16.1365 4.93241C16.3073 4.8109 16.4956 4.79753 16.6895 4.87651C16.7772 4.91215 16.8636 4.95185 16.9541 4.99114L16.9537 4.99154Z" fill="#C6A465"/>
    <path d="M33.4933 44.4957C33.4555 44.5949 33.4222 44.6918 33.3829 44.7853C33.3163 44.9425 33.2019 45.0539 33.0376 45.1049C32.788 45.1818 32.5328 45.098 32.3757 44.887C32.2272 44.6877 32.1927 44.469 32.2808 44.2337C32.4484 43.7849 32.6151 43.3361 32.7819 42.8873C32.7876 42.8723 32.7925 42.8573 32.799 42.8379C32.8923 42.8796 32.9824 42.9193 33.0716 42.9598C33.4474 43.1299 33.8256 43.2952 34.1981 43.4726C34.6149 43.6706 34.7098 44.29 34.3097 44.5666C34.1372 44.6857 33.949 44.6966 33.7562 44.6152C33.669 44.5783 33.5829 44.5374 33.4933 44.4969V44.4957Z" fill="#C6A465"/>
    <path d="M32.2061 5.09036C32.7445 5.05836 33.212 4.86151 33.6137 4.49414C33.6466 5.03284 33.8438 5.50025 34.2111 5.89922C33.6709 5.93162 33.2031 6.12928 32.8034 6.49462C32.7697 5.95471 32.5729 5.48891 32.2061 5.09036Z" fill="#C6A465"/>
    <path d="M16.2061 43.5831C16.7445 43.5495 17.2112 43.351 17.6117 42.9824C17.6462 43.5211 17.845 43.9877 18.2139 44.3855C17.6738 44.4195 17.2067 44.6188 16.8082 44.9853C16.7729 44.4458 16.5745 43.9804 16.2061 43.5831Z" fill="#C6A465"/>
    <path d="M44.258 17.1353C44.2479 17.124 44.2398 17.1074 44.2272 17.1021C44.17 17.0786 44.1115 17.0584 44.0539 17.0365C43.8721 16.968 43.7577 16.8408 43.7313 16.6472C43.7041 16.4459 43.7837 16.2831 43.9436 16.1648C44.1067 16.0441 44.2897 16.0134 44.4845 16.085C44.872 16.228 45.2591 16.3714 45.6462 16.5144C45.6576 16.5188 45.6698 16.5221 45.686 16.5273C45.6515 16.6047 45.619 16.678 45.5862 16.7509C45.4417 17.0705 45.2973 17.3901 45.1516 17.7092C44.9933 18.056 44.5096 18.1402 44.2544 17.8672C44.1217 17.7254 44.0913 17.5201 44.174 17.3358C44.2041 17.269 44.2308 17.2005 44.2588 17.1329L44.258 17.1353Z" fill="#C6A465"/>
    <path d="M44.2598 17.132C44.1304 17.2438 44.0334 17.3811 43.949 17.5277C43.9064 17.6023 43.8715 17.6813 43.8313 17.7615C43.7221 17.5006 43.6134 17.241 43.5034 16.9785C43.5911 17.0073 43.6738 17.0445 43.7607 17.0603C43.9125 17.0879 44.0667 17.1021 44.2196 17.1223C44.233 17.1239 44.2456 17.13 44.259 17.134L44.2598 17.1316V17.132Z" fill="#C6A465"/>
    <path d="M6.35629 32.7011C6.36644 32.7124 6.37496 32.7286 6.38754 32.7339C6.44475 32.7566 6.50359 32.776 6.56162 32.7971C6.74423 32.8631 6.86069 32.9883 6.8895 33.1819C6.91953 33.3828 6.84243 33.5468 6.68376 33.6671C6.52226 33.7898 6.33965 33.8235 6.14407 33.7542C5.75491 33.6165 5.36536 33.4788 4.97621 33.3411C4.96444 33.337 4.95267 33.3338 4.93604 33.3289C4.96931 33.2511 5.00056 33.1774 5.03261 33.1037C5.17261 32.7821 5.3122 32.4605 5.45382 32.1397C5.60721 31.791 6.08969 31.6998 6.34899 31.9696C6.4833 32.1093 6.51698 32.3143 6.43704 32.4998C6.40783 32.567 6.38226 32.6359 6.35507 32.7035L6.35589 32.7011H6.35629Z" fill="#C6A465"/>
    <path d="M6.35547 32.7039C6.48329 32.5905 6.57825 32.4515 6.66062 32.3037C6.70242 32.2288 6.7361 32.149 6.77505 32.0684C6.88786 32.3276 7.00027 32.5856 7.11389 32.8468C7.02583 32.8193 6.94264 32.7833 6.85581 32.7687C6.70363 32.7432 6.54944 32.7314 6.39605 32.7132C6.38266 32.7116 6.36967 32.7059 6.35669 32.7018L6.35587 32.7043L6.35547 32.7039Z" fill="#C6A465"/>
    <path d="M25.2274 43.1404C15.0438 43.1404 6.75879 34.8708 6.75879 24.706C6.75879 14.5411 15.0438 6.27148 25.2274 6.27148C35.4111 6.27148 43.6964 14.5411 43.6964 24.706C43.6964 34.8708 35.4115 43.1404 25.2274 43.1404ZM25.2274 6.37801C15.1026 6.37801 6.86551 14.5999 6.86551 24.706C6.86551 34.8121 15.1026 43.0339 25.2274 43.0339C35.3522 43.0339 43.5893 34.8121 43.5893 24.706C43.5893 14.5999 35.3522 6.37801 25.2274 6.37801Z" fill="#C6A465"/>
    <path d="M29.8456 2.203C29.7977 2.43104 29.5766 2.57482 29.3473 2.53149C27.9668 2.26943 26.5575 2.13698 25.1514 2.13698H25.1486C23.775 2.13698 22.3949 2.26376 21.0396 2.51366C20.8103 2.55619 20.5896 2.41078 20.5429 2.18275L20.2856 0.925511C20.2378 0.691804 20.3903 0.460528 20.6253 0.417189C22.117 0.140143 23.6366 0 25.149 0H25.1523C26.7003 0 28.2529 0.147029 29.7726 0.437036C30.0075 0.481995 30.1589 0.713676 30.1098 0.947383L29.846 2.2034L29.8456 2.203Z" fill="#C6A465"/>
    <path d="M30.1073 48.5684C30.1564 48.8021 30.0051 49.0338 29.7701 49.0787C28.25 49.3687 26.6979 49.5157 25.1498 49.5157H25.1466C23.6342 49.5157 22.1149 49.3756 20.6228 49.0986C20.3879 49.0548 20.2353 48.8239 20.2832 48.5902L20.5405 47.333C20.5871 47.105 20.8079 46.9596 21.0372 47.0021C22.3925 47.252 23.7726 47.3788 25.1462 47.3788H25.149C26.5551 47.3788 27.9644 47.2463 29.3449 46.9843C29.5741 46.9409 29.7953 47.0847 29.8432 47.3127L30.1069 48.5688L30.1073 48.5684Z" fill="#C6A465"/>
    <path d="M47.7929 29.3968C47.5644 29.349 47.4203 29.1282 47.4638 28.8994C47.7263 27.5214 47.859 26.1147 47.859 24.7113V24.7084C47.859 23.3374 47.732 21.9599 47.4816 20.607C47.439 20.3782 47.5847 20.1579 47.8132 20.1113L49.0727 19.8545C49.3069 19.8067 49.5386 19.959 49.582 20.1935C49.8595 21.6824 49.9999 23.1993 49.9999 24.7089V24.7121C49.9999 26.2573 49.8526 27.807 49.5621 29.3239C49.5171 29.5584 49.2849 29.7094 49.0508 29.6604L47.7925 29.3972L47.7929 29.3968Z" fill="#C6A465"/>
    <path d="M1.34318 29.6565C1.10904 29.7055 0.87693 29.5545 0.831888 29.3199C0.541344 27.8027 0.394043 26.2534 0.394043 24.7082V24.7049C0.394043 23.1954 0.534446 21.6789 0.812004 20.1896C0.855829 19.9551 1.08713 19.8028 1.32127 19.8506L2.58083 20.1074C2.80929 20.1539 2.95497 20.3743 2.91236 20.6031C2.66199 21.956 2.53498 23.3335 2.53498 24.7045V24.7074C2.53498 26.1108 2.66767 27.5175 2.93022 28.8955C2.97364 29.1243 2.82958 29.3451 2.60112 29.3929L1.34277 29.6561L1.34318 29.6565Z" fill="#C6A465"/>
    <path d="M44.4619 12.089C44.2668 12.2166 44.0083 12.1619 43.8768 11.9695C43.0859 10.8099 42.1834 9.72153 41.1893 8.72919L41.1872 8.72717C40.2158 7.75751 39.1502 6.87331 38.0148 6.09321C37.8224 5.96116 37.7693 5.70275 37.8979 5.50833L38.6064 4.43782C38.7383 4.23894 39.0098 4.18305 39.207 4.31793C40.458 5.17499 41.632 6.14829 42.7012 7.21556L42.7033 7.21759C43.7981 8.31038 44.7914 9.5097 45.661 10.7876C45.7954 10.9848 45.7381 11.2558 45.5381 11.3866L44.4619 12.0886V12.089Z" fill="#C6A465"/>
    <path d="M11.8033 45.0575C11.6726 45.2572 11.4012 45.3143 11.2031 45.1803C9.92288 44.3127 8.72134 43.3207 7.62652 42.2279L7.62449 42.2259C6.55524 41.1586 5.58013 39.9869 4.72149 38.7381C4.58636 38.5413 4.64195 38.2703 4.8416 38.1387L5.9141 37.4315C6.10888 37.3031 6.36777 37.3561 6.50006 37.5481C7.2812 38.6814 8.16744 39.7451 9.13889 40.7147L9.14092 40.7167C10.1351 41.7091 11.2255 42.6103 12.3872 43.3993C12.58 43.5301 12.6343 43.7881 12.5069 43.9834L11.8037 45.0575H11.8033Z" fill="#C6A465"/>
    <path d="M37.8865 43.9834C37.7587 43.7885 37.8135 43.5305 38.0062 43.3993C39.168 42.6099 40.2584 41.7091 41.2525 40.7167L41.2546 40.7147C42.226 39.7451 43.1119 38.6814 43.8934 37.5481C44.0257 37.3561 44.2846 37.3031 44.4794 37.4315L45.5519 38.1387C45.7511 38.2703 45.8071 38.5413 45.672 38.7381C44.8133 39.9869 43.8382 41.1586 42.769 42.2259L42.7669 42.2279C41.6721 43.3207 40.4706 44.3123 39.1903 45.1803C38.9927 45.3143 38.7212 45.2572 38.5902 45.0575L37.8869 43.9834H37.8865Z" fill="#C6A465"/>
    <path d="M4.8565 11.3867C4.65644 11.2563 4.59923 10.9854 4.73354 10.7877C5.60274 9.5098 6.59651 8.31049 7.69133 7.2177L7.69336 7.21567C8.76261 6.1484 9.93655 5.17509 11.1876 4.31803C11.3848 4.18315 11.6563 4.23864 11.7882 4.43792L12.4967 5.50844C12.6253 5.70285 12.5721 5.96127 12.3798 6.09331C11.2444 6.87301 10.1788 7.75761 9.20735 8.72727L9.20532 8.7293C8.21114 9.72164 7.30827 10.81 6.51779 11.9696C6.38672 12.162 6.12823 12.2163 5.93264 12.0891L4.8565 11.3872V11.3867Z" fill="#C6A465"/>
    <path d="M25.2183 47.9782C12.3614 47.9782 1.90137 37.5376 1.90137 24.704C1.90137 11.8703 12.361 1.42969 25.2183 1.42969C38.0757 1.42969 48.5357 11.8703 48.5357 24.704C48.5357 37.5376 38.0757 47.9782 25.2183 47.9782ZM25.2183 1.53662C12.4202 1.53662 2.00809 11.9295 2.00809 24.704C2.00809 37.4784 12.4202 47.8713 25.2183 47.8713C38.0165 47.8713 48.4286 37.4784 48.4286 24.704C48.4286 11.9295 38.0165 1.53662 25.2183 1.53662Z" fill="#C6A465"/>
    <path d="M26.9232 24.5077L28.6396 21.5444L25.2266 15.5977L21.8135 21.5444L23.53 24.5077L23.5263 26.2753H22.2813L23.3392 28.2413L24.4965 26.3036L25.2266 27.6123L25.9566 26.3036L27.1139 28.2413L28.1718 26.2753H26.9268L26.9232 24.5077ZM25.2282 25.7131L24.0262 23.6352L22.8243 21.5574L24.0262 19.4795L25.2282 17.4017L26.4293 19.4795L27.6313 21.5574L26.4293 23.6352L25.2282 25.7131Z" fill="#C6A465"/>
    <path d="M24.5065 27.1678L24.5045 27.1703L23.5817 28.6948L24.3632 30.1481L24.3596 30.1546H23.8893L23.3074 29.1481L23.0542 28.7098L21.9261 26.7588L19.8785 30.155H19.4013L20.277 28.641L20.8824 27.5952H18.4947L18.965 28.4384H19.4155L18.9086 29.3056L18.7479 29.0282L17.6422 27.1188H21.1571L21.6449 26.2759L19.5814 26.2751L18.6355 24.7947L19.7117 22.9328L12.0679 19.1797L15.1498 24.508L16.0641 26.0892L16.172 26.2751V26.2759L17.5403 28.6406L18.4294 30.1773L18.9082 31.0056L25.2247 30.5337L31.5412 31.0056L32.02 30.1773L32.9091 28.6406L34.2774 26.2759V26.2751L34.3854 26.0892L35.2996 24.508L38.3816 19.1797L30.7378 22.9328L31.8139 24.7947L30.868 26.2751L28.8046 26.2759L29.2923 27.1188H32.8073L31.7015 29.0282L31.5408 29.3056L31.034 28.4384H31.4844L31.9547 27.5952H29.5671L30.1725 28.641L31.0482 30.155H30.571L28.5234 26.7588L27.3953 28.7098L27.1421 29.1481L26.5602 30.1546H26.0899L26.0862 30.1481L26.8678 28.6948L25.945 27.1703L25.943 27.167L25.2235 28.3469L24.504 27.1678H24.5065ZM16.9901 25.9888L14.2222 21.2033L18.5313 23.3188L16.9901 25.9888ZM20.9039 30.1546L21.4172 29.2676L21.9305 28.3801L22.443 29.2676L22.9564 30.1546H20.9043H20.9039ZM27.4963 30.1546L28.0096 29.2676L28.5222 28.3801L29.0355 29.2676L29.5488 30.1546H27.4967H27.4963ZM33.4529 25.9888L31.9121 23.3188L36.2208 21.2033L33.4529 25.9888Z" fill="#C6A465"/>
    <path d="M31.2855 31.4485L30.7629 32.353L25.2275 31.9398L19.6897 32.3534L19.1675 31.4489L25.2275 30.9961L31.2855 31.4485Z" fill="#C6A465"/>
    <mask id="mask0_2926_37244" style="mask-type:luminance" maskUnits="userSpaceOnUse" x="0" y="0" width="50" height="50">
        <path d="M25.196 49.5104C38.8732 49.5104 49.9608 38.4433 49.9608 24.7913C49.9608 11.1394 38.8732 0.0722656 25.196 0.0722656C11.5187 0.0722656 0.431152 11.1394 0.431152 24.7913C0.431152 38.4433 11.5187 49.5104 25.196 49.5104Z" fill="white"/>
    </mask>
    <g mask="url(#mask0_2926_37244)">
        <path d="M55.9881 -4.43427L31.5576 -16.5977L-2.15445 50.8638L22.276 63.0272L55.9881 -4.43427Z" fill="url(#paint0_linear_2926_37244)"/>
    </g>
    <defs>
        <linearGradient id="paint0_linear_2926_37244" x1="14.6889" y1="17.1416" x2="39.1108" y2="29.3458" gradientUnits="userSpaceOnUse">
            <stop stop-color="white" stop-opacity="0"/>
            <stop offset="0.14" stop-color="white" stop-opacity="0.01"/>
            <stop offset="0.23" stop-color="white" stop-opacity="0.04"/>
            <stop offset="0.3" stop-color="white" stop-opacity="0.1"/>
            <stop offset="0.37" stop-color="white" stop-opacity="0.18"/>
            <stop offset="0.43" stop-color="white" stop-opacity="0.29"/>
            <stop offset="0.49" stop-color="white" stop-opacity="0.41"/>
            <stop offset="0.52" stop-color="white" stop-opacity="0.5"/>
            <stop offset="0.54" stop-color="white" stop-opacity="0.44"/>
            <stop offset="0.6" stop-color="white" stop-opacity="0.31"/>
            <stop offset="0.66" stop-color="white" stop-opacity="0.19"/>
            <stop offset="0.73" stop-color="white" stop-opacity="0.11"/>
            <stop offset="0.8" stop-color="white" stop-opacity="0.05"/>
            <stop offset="0.88" stop-color="white" stop-opacity="0.01"/>
            <stop offset="1" stop-color="white" stop-opacity="0"/>
        </linearGradient>
    </defs>
</svg>
