<svg xmlns="http://www.w3.org/2000/svg" width="45" height="56" viewBox="0 0 45 56" fill="none">
    <g clip-path="url(#clip0_148_29417)">
        <path d="M22.5009 23.1377L34.4628 31.2992L32.7012 34.3928L22.5009 52.3082L12.3026 34.3928L10.541 31.2992L22.5009 23.1377Z" fill="#C6A465"/>
        <path d="M42.9008 16.4775L38.3504 24.4687L29.4508 18.3965L22.5002 13.6533L15.5516 18.3965L6.65195 24.4687L2.10156 16.4775L5.07787 11.249L8.9662 4.42031L10.3508 1.98828H34.6515L36.0342 4.41833L39.9245 11.249L42.9008 16.4775Z" fill="#C6A465"/>
        <path d="M41.4534 10.2074L37.5807 3.36285L35.6785 0H9.25506L7.38022 3.33711L3.53094 10.1935L0 16.4796L5.13627 25.5026L9.02656 32.3333L22.5 56L35.9734 32.3333L39.8618 25.5026L45 16.4776L41.4534 10.2074ZM22.5 54.0195L9.83704 31.7788L5.9487 24.9481L1.1249 16.4756L4.34142 10.7481L8.19265 3.89164L9.82337 0.990239H35.1122L36.7683 3.91739L40.641 10.7619L43.8731 16.4756L39.0513 24.9481L35.163 31.7788L33.046 35.4961L22.5 54.0195Z" fill="#C6A465"/>
    </g>
    <defs>
        <clipPath id="clip0_148_29417">
            <rect width="45" height="56" fill="white"/>
        </clipPath>
    </defs>
</svg>