<svg width="41" height="28" viewBox="0 0 41 28" fill="none" xmlns="http://www.w3.org/2000/svg">
    <path d="M41 18.7994V21.4337C40.9567 21.9498 40.9086 22.4659 40.8709 22.9821C40.8549 23.201 40.7947 23.3764 40.5782 23.5171C37.5774 25.4671 34.3224 26.9553 30.7964 27.9629C30.5157 28.0434 30.3409 27.9984 30.1885 27.7737C29.5839 26.8813 28.9696 25.9933 28.3618 25.1024C28.3056 25.0198 28.2727 24.9241 28.2094 24.7929C29.3874 24.3587 30.5366 23.9165 31.6071 23.3134C31.0626 22.7385 30.9175 22.7066 30.2334 22.9734C27.5205 24.0332 24.689 24.653 21.7379 24.782C17.8903 24.9502 14.2007 24.3101 10.6666 22.9292C10.1301 22.7197 9.77326 22.8277 9.43485 23.3228C9.53349 23.3808 9.62651 23.4496 9.73237 23.4953C10.6177 23.8788 11.5014 24.2659 12.3931 24.6356C12.8069 24.8067 12.8358 24.8016 12.5944 25.164C12.013 26.0347 11.406 26.8908 10.8206 27.7592C10.6602 27.9963 10.4814 28.0405 10.1879 27.9564C6.68427 26.9531 3.44853 25.4736 0.463784 23.5388C0.267314 23.4112 0.171885 23.2677 0.149432 23.0495C-0.0951537 20.6153 -0.0438309 18.1876 0.335477 15.7671C1.08928 10.9559 3.10771 6.59197 6.08123 2.56946C6.17986 2.43536 6.32822 2.30343 6.487 2.23819C9.03309 1.1936 11.6858 0.45926 14.4372 0.0105438C14.6553 -0.0249765 14.7949 0.0264978 14.8935 0.206999C15.1325 0.645567 15.3875 1.07688 15.6225 1.5169C15.855 1.95112 15.8454 1.92212 16.3947 1.8866C17.8574 1.79236 19.3217 1.66768 20.7852 1.66913C22.1276 1.67058 23.47 1.81339 24.8117 1.9098C25.0707 1.92865 25.211 1.87718 25.3201 1.65173C25.5406 1.19504 25.8108 0.758651 26.0402 0.30486C26.1717 0.0453436 26.3417 -0.030047 26.6633 0.023596C28.9945 0.413595 31.2583 1.00802 33.4531 1.81701C34.3096 2.13259 34.9861 2.64195 35.4828 3.34511C38.2117 7.22046 40.0257 11.4053 40.6897 15.9737C40.826 16.9117 40.8966 17.857 40.9976 18.7987L41 18.7994ZM23.6441 15.4003C23.6593 16.2963 23.9488 17.1176 24.5703 17.8352C25.9207 19.3923 28.3329 19.5076 29.8156 18.0868C31.2928 16.6718 31.3577 14.3318 29.9624 12.8537C28.5005 11.3053 25.972 11.3495 24.5759 12.9479C23.9512 13.6634 23.6617 14.4847 23.6441 15.4003ZM17.3586 15.1893C17.3731 14.803 17.2359 14.2332 16.9593 13.6902C15.8213 11.4539 12.734 11.0371 11.0227 12.8892C9.73397 14.2839 9.72355 16.4681 10.9994 17.87C12.3562 19.3619 14.5912 19.504 16.1036 18.1767C16.9633 17.4228 17.3474 16.4775 17.3586 15.1893Z" fill="#C6A465"/>
</svg>
