<svg xmlns="http://www.w3.org/2000/svg" width="15" height="15" viewBox="0 0 15 15" fill="none">
    <g clip-path="url(#clip0_2640_9227)">
        <path d="M14.5421 7.48234C14.5421 11.3603 11.3866 14.517 7.50736 14.517C3.62815 14.517 0.472656 11.3602 0.472656 7.48234C0.472656 3.60448 3.62815 0.446289 7.50736 0.446289C11.3866 0.446289 14.5421 3.60301 14.5421 7.48222V7.48234Z" fill="#464648"/>
        <path d="M7.50961 12.6735C4.65253 12.6735 2.32812 10.3491 2.32812 7.49203C2.32812 4.63496 4.65253 2.31055 7.50961 2.31055C10.3667 2.31055 12.6911 4.63496 12.6911 7.49203C12.6911 10.3491 10.3667 12.6735 7.50961 12.6735ZM7.50961 2.82861C4.93819 2.82861 2.84606 4.92061 2.84606 7.49215C2.84606 10.0637 4.93807 12.1557 7.50961 12.1557C10.0811 12.1557 12.1731 10.0637 12.1731 7.49215C12.1731 4.92061 10.0811 2.82861 7.50961 2.82861Z" fill="#C6A465"/>
        <path d="M7.49967 13.0638C4.42724 13.0638 1.92773 10.5643 1.92773 7.49185C1.92773 4.41943 4.42737 1.91992 7.49967 1.91992C10.572 1.91992 13.0716 4.41955 13.0716 7.49185C13.0716 10.5641 10.5721 13.0638 7.49967 13.0638ZM7.49967 2.56732C4.78419 2.56732 2.57513 4.7765 2.57513 7.49185C2.57513 10.2072 4.78432 12.4164 7.49967 12.4164C10.215 12.4164 12.4242 10.2072 12.4242 7.49185C12.4242 4.7765 10.215 2.56732 7.49967 2.56732Z" fill="#6F7073"/>
        <path d="M7.49953 14.7764C3.47945 14.7764 0.208984 11.5059 0.208984 7.48585C0.208984 3.46578 3.47945 0.195312 7.49953 0.195312C11.5196 0.195312 14.7901 3.4659 14.7901 7.48585C14.7901 11.5058 11.5196 14.7764 7.49953 14.7764ZM7.49953 0.456675C3.62363 0.456675 0.470347 3.60996 0.470347 7.48585C0.470347 11.3617 3.62363 14.515 7.49953 14.515C11.3754 14.515 14.5287 11.3617 14.5287 7.48585C14.5287 3.60996 11.3754 0.456675 7.49953 0.456675Z" fill="#6F7073"/>
        <path d="M1.53895 5.20779C1.50079 5.21625 1.46337 5.21846 1.42607 5.20865C1.36398 5.19245 1.32287 5.15355 1.3079 5.09122C1.29268 5.02766 1.31121 4.97232 1.36177 4.93084C1.41183 4.88961 1.46864 4.8836 1.52828 4.90912C1.5608 4.92299 1.58693 4.94532 1.60939 4.97244C1.61331 4.97722 1.61724 4.98189 1.62301 4.98888C1.62448 4.95416 1.62853 4.92299 1.64362 4.89391C1.67859 4.82666 1.75627 4.79268 1.82915 4.8139C1.90327 4.83538 1.95345 4.90753 1.94265 4.98373C1.93038 5.06999 1.87541 5.12189 1.79713 5.15257C1.7943 5.15367 1.79136 5.15453 1.78878 5.15662C1.85443 5.15257 1.91676 5.1349 1.97848 5.10582C1.94781 5.18852 1.91799 5.26865 1.88731 5.35135C1.85983 5.28963 1.82412 5.23515 1.77663 5.18877C1.79737 5.22251 1.80915 5.25896 1.81124 5.29834C1.8148 5.36583 1.79614 5.42375 1.73749 5.46351C1.67957 5.50277 1.59847 5.49651 1.5446 5.44927C1.49147 5.40252 1.47527 5.32313 1.5073 5.26116C1.5165 5.24337 1.52791 5.22681 1.5392 5.20803L1.53895 5.20779Z" fill="#C6A465"/>
        <path d="M13.4674 9.76729C13.5059 9.76066 13.5435 9.76042 13.5803 9.77207C13.6415 9.79146 13.6806 9.83232 13.6924 9.89527C13.7045 9.95944 13.6831 10.0138 13.6306 10.0528C13.5784 10.0915 13.5215 10.0947 13.4631 10.0662C13.4313 10.0506 13.4063 10.0271 13.3853 9.99896C13.3816 9.99405 13.3779 9.98914 13.3725 9.9819C13.3693 10.0165 13.3637 10.0474 13.3471 10.0756C13.3089 10.141 13.2296 10.171 13.1578 10.1462C13.0848 10.121 13.0384 10.0464 13.053 9.97098C13.0696 9.88545 13.1271 9.83637 13.2069 9.80974C13.2098 9.80876 13.2128 9.80815 13.2155 9.80606C13.1497 9.8068 13.0866 9.8214 13.0234 9.84729C13.0583 9.76618 13.092 9.68765 13.1269 9.60667C13.1513 9.66974 13.1841 9.72593 13.2293 9.77453C13.2103 9.7398 13.2004 9.70274 13.2004 9.66336C13.2003 9.59574 13.2219 9.53881 13.2823 9.50212C13.3422 9.4658 13.4228 9.47611 13.4743 9.52605C13.5251 9.57538 13.5371 9.6555 13.5021 9.71575C13.492 9.73305 13.4799 9.749 13.4675 9.76716L13.4674 9.76729Z" fill="#C6A465"/>
        <path d="M5.0079 1.51304C5.01882 1.48273 5.02851 1.4534 5.04017 1.42481C5.05968 1.37684 5.09379 1.34272 5.14324 1.32665C5.21834 1.30235 5.29589 1.32665 5.34423 1.38997C5.38988 1.44972 5.40129 1.51586 5.37565 1.58752C5.32681 1.72409 5.27822 1.86079 5.22963 1.99748C5.22803 2.00202 5.22656 2.00656 5.2246 2.01257C5.19613 2.0003 5.16877 1.98864 5.14165 1.97674C5.02729 1.92668 4.91231 1.87821 4.79893 1.82606C4.67218 1.76777 4.64089 1.58053 4.76077 1.49512C4.81243 1.45831 4.86936 1.45426 4.92802 1.47819C4.95452 1.48899 4.98066 1.50101 5.00802 1.51292L5.0079 1.51304Z" fill="#C6A465"/>
        <path d="M10.0081 13.4798C9.99666 13.5098 9.9866 13.5392 9.97469 13.5675C9.95457 13.6151 9.91997 13.6489 9.87027 13.6643C9.79481 13.6876 9.71762 13.6622 9.67014 13.5983C9.62523 13.5379 9.6148 13.4717 9.64142 13.4004C9.6921 13.2644 9.74253 13.1285 9.79297 12.9925C9.79468 12.988 9.79616 12.9834 9.79812 12.9775C9.82634 12.9902 9.85358 13.0022 9.88058 13.0145C9.9942 13.066 10.1086 13.1161 10.2212 13.1698C10.3472 13.2298 10.3759 13.4174 10.255 13.5012C10.2028 13.5373 10.1459 13.5406 10.0876 13.516C10.0612 13.5048 10.0352 13.4924 10.0081 13.4801V13.4798Z" fill="#C6A465"/>
        <path d="M9.61914 1.54195C9.78197 1.53226 9.92333 1.47262 10.0448 1.36133C10.0547 1.52453 10.1144 1.66613 10.2254 1.78699C10.0621 1.79681 9.92063 1.85669 9.79976 1.96737C9.78958 1.8038 9.73007 1.66269 9.61914 1.54195Z" fill="#C6A465"/>
        <path d="M4.78125 13.2035C4.94408 13.1933 5.08519 13.1331 5.2063 13.0215C5.21673 13.1847 5.27686 13.326 5.3884 13.4465C5.22508 13.4568 5.08384 13.5172 4.96334 13.6283C4.95267 13.4648 4.89267 13.3238 4.78125 13.2035Z" fill="#C6A465"/>
        <path d="M13.2644 5.19107C13.2613 5.18763 13.2589 5.1826 13.255 5.18101C13.2377 5.17389 13.2201 5.16775 13.2027 5.16113C13.1477 5.14039 13.1131 5.10186 13.1051 5.04321C13.0969 4.98222 13.1209 4.9329 13.1693 4.89707C13.2186 4.8605 13.2739 4.85117 13.3328 4.87289C13.45 4.91621 13.5671 4.95965 13.6841 5.00296C13.6876 5.00431 13.6913 5.00529 13.6962 5.00689C13.6857 5.03032 13.6759 5.05253 13.666 5.07462C13.6223 5.17143 13.5786 5.26825 13.5346 5.36494C13.4867 5.46998 13.3405 5.4955 13.2633 5.4128C13.2231 5.36985 13.2139 5.30764 13.239 5.25181C13.2481 5.23156 13.2562 5.21082 13.2646 5.19033L13.2644 5.19107Z" fill="#C6A465"/>
        <path d="M13.2639 5.19006C13.2247 5.22393 13.1954 5.26552 13.1699 5.30994C13.157 5.33252 13.1464 5.35645 13.1343 5.38074C13.1013 5.30172 13.0684 5.22307 13.0352 5.14355C13.0617 5.15227 13.0867 5.16356 13.113 5.16834C13.1588 5.17669 13.2055 5.18098 13.2517 5.18712C13.2558 5.18761 13.2596 5.18945 13.2636 5.19067L13.2639 5.18994V5.19006Z" fill="#C6A465"/>
        <path d="M1.80252 9.9069C1.80558 9.91033 1.80816 9.91524 1.81196 9.91683C1.82927 9.92371 1.84706 9.9296 1.8646 9.93598C1.91982 9.95598 1.95504 9.99389 1.96375 10.0525C1.97283 10.1134 1.94952 10.1631 1.90154 10.1995C1.8527 10.2367 1.79748 10.2469 1.73834 10.2259C1.62067 10.1842 1.50287 10.1425 1.38519 10.1008C1.38164 10.0995 1.37808 10.0986 1.37305 10.0971C1.38311 10.0735 1.39256 10.0512 1.40225 10.0289C1.44458 9.93144 1.48679 9.83401 1.52962 9.73683C1.576 9.63118 1.7219 9.60357 1.80031 9.68529C1.84092 9.72762 1.85111 9.78971 1.82693 9.84591C1.8181 9.86628 1.81037 9.88714 1.80215 9.90763L1.80239 9.9069H1.80252Z" fill="#C6A465"/>
        <path d="M1.80273 9.90737C1.84139 9.87301 1.8701 9.83092 1.89501 9.78614C1.90765 9.76344 1.91783 9.73926 1.92961 9.71484C1.96372 9.79338 1.99771 9.87154 2.03207 9.95068C2.00544 9.94234 1.98029 9.93142 1.95403 9.927C1.90802 9.91927 1.86139 9.91571 1.815 9.91019C1.81096 9.9097 1.80703 9.90798 1.8031 9.90676L1.80286 9.90749L1.80273 9.90737Z" fill="#C6A465"/>
        <path d="M7.50852 13.0688C4.4291 13.0688 1.92383 10.5635 1.92383 7.48411C1.92383 4.40469 4.4291 1.89941 7.50852 1.89941C10.5879 1.89941 13.0933 4.40469 13.0933 7.48411C13.0933 10.5635 10.5881 13.0688 7.50852 13.0688ZM7.50852 1.93169C4.4469 1.93169 1.9561 4.42248 1.9561 7.48411C1.9561 10.5457 4.4469 13.0365 7.50852 13.0365C10.5701 13.0365 13.0609 10.5457 13.0609 7.48411C13.0609 4.42248 10.5701 1.93169 7.50852 1.93169Z" fill="#C6A465"/>
        <path d="M8.90519 0.667395C8.89071 0.736478 8.82384 0.780039 8.75451 0.766909C8.33707 0.687519 7.91091 0.647394 7.48574 0.647394H7.48488C7.06952 0.647394 6.6522 0.685801 6.24236 0.76151C6.17303 0.774394 6.10628 0.730343 6.09217 0.66126L6.01438 0.280382C5.9999 0.209581 6.04603 0.139516 6.11708 0.126387C6.56815 0.0424561 7.02768 0 7.485 0H7.48598C7.9541 0 8.42357 0.0445421 8.88311 0.132399C8.95415 0.146019 8.99992 0.216207 8.98507 0.287008L8.90532 0.667518L8.90519 0.667395Z" fill="#C6A465"/>
        <path d="M8.98507 14.7127C8.99992 14.7835 8.95415 14.8537 8.88311 14.8673C8.42345 14.9552 7.9541 14.9997 7.48598 14.9997H7.485C7.02768 14.9997 6.56827 14.9573 6.11708 14.8733C6.04603 14.8601 5.9999 14.7901 6.01438 14.7193L6.09217 14.3385C6.10628 14.2694 6.17303 14.2253 6.24236 14.2382C6.6522 14.3139 7.06952 14.3523 7.48488 14.3523H7.48574C7.91091 14.3523 8.33707 14.3122 8.75451 14.2328C8.82384 14.2197 8.89071 14.2632 8.90519 14.3323L8.98495 14.7128L8.98507 14.7127Z" fill="#C6A465"/>
        <path d="M14.3323 8.90617C14.2632 8.89169 14.2197 8.82482 14.2328 8.75549C14.3122 8.33804 14.3523 7.91189 14.3523 7.48671V7.48585C14.3523 7.0705 14.3139 6.65318 14.2382 6.24334C14.2253 6.17401 14.2694 6.10726 14.3385 6.09315L14.7193 6.01535C14.7901 6.00087 14.8602 6.04701 14.8733 6.11806C14.9573 6.56912 14.9997 7.02865 14.9997 7.48598V7.48696C14.9997 7.95508 14.9552 8.42455 14.8673 8.88408C14.8537 8.95513 14.7835 9.0009 14.7127 8.98605L14.3322 8.90629L14.3323 8.90617Z" fill="#C6A465"/>
        <path d="M0.287008 8.98507C0.216207 8.99992 0.146019 8.95415 0.132399 8.88311C0.0445421 8.42345 0 7.9541 0 7.48598V7.485C0 7.02768 0.0424561 6.56827 0.126387 6.11708C0.139639 6.04603 0.209581 5.9999 0.280382 6.01438L0.66126 6.09217C0.730343 6.10628 0.774394 6.17303 0.76151 6.24236C0.685801 6.6522 0.647394 7.06952 0.647394 7.48488V7.48574C0.647394 7.91091 0.687519 8.33707 0.766909 8.75451C0.780039 8.82384 0.736478 8.89071 0.667395 8.90519L0.286885 8.98495L0.287008 8.98507Z" fill="#C6A465"/>
        <path d="M13.3264 3.66271C13.2674 3.70136 13.1893 3.6848 13.1495 3.62651C12.9104 3.27521 12.6375 2.9455 12.3368 2.64487L12.3362 2.64426C12.0425 2.3505 11.7202 2.08263 11.3769 1.8463C11.3187 1.8063 11.3027 1.72802 11.3416 1.66912L11.5558 1.34481C11.5957 1.28456 11.6778 1.26762 11.7374 1.30849C12.1157 1.56813 12.4707 1.86299 12.794 2.18632L12.7946 2.18693C13.1257 2.51799 13.4261 2.88132 13.689 3.26846C13.7297 3.32822 13.7124 3.41031 13.6519 3.44994L13.3264 3.66259V3.66271Z" fill="#C6A465"/>
        <path d="M3.449 13.6509C3.40949 13.7114 3.3274 13.7287 3.26751 13.6881C2.88038 13.4252 2.51705 13.1247 2.18599 12.7937L2.18538 12.7931C1.86205 12.4697 1.56719 12.1147 1.30754 11.7364C1.26668 11.6768 1.28349 11.5947 1.34386 11.5548L1.66817 11.3406C1.72707 11.3017 1.80536 11.3178 1.84536 11.3759C2.08157 11.7193 2.34956 12.0415 2.64331 12.3352L2.64393 12.3359C2.94455 12.6365 3.27426 12.9095 3.62557 13.1485C3.68385 13.1882 3.7003 13.2663 3.66177 13.3255L3.44912 13.6509H3.449Z" fill="#C6A465"/>
        <path d="M11.3373 13.3255C11.2987 13.2664 11.3152 13.1883 11.3735 13.1485C11.7248 12.9094 12.0545 12.6365 12.3552 12.3359L12.3558 12.3352C12.6495 12.0415 12.9174 11.7193 13.1537 11.3759C13.1937 11.3178 13.272 11.3017 13.3309 11.3406L13.6552 11.5548C13.7155 11.5947 13.7324 11.6768 13.6915 11.7364C13.4319 12.1147 13.137 12.4697 12.8137 12.7931L12.8131 12.7937C12.482 13.1247 12.1187 13.4251 11.7316 13.6881C11.6718 13.7287 11.5897 13.7114 11.5501 13.6509L11.3374 13.3255H11.3373Z" fill="#C6A465"/>
        <path d="M1.35024 3.44997C1.28974 3.41046 1.27244 3.32837 1.31306 3.26849C1.57589 2.88136 1.8764 2.51803 2.20746 2.18697L2.20807 2.18635C2.5314 1.86302 2.88639 1.56816 3.26469 1.30852C3.32432 1.26766 3.40641 1.28447 3.44629 1.34484L3.66054 1.66915C3.69943 1.72805 3.68336 1.80633 3.6252 1.84634C3.28187 2.08254 2.95964 2.35053 2.66589 2.64429L2.66527 2.6449C2.36464 2.94553 2.09162 3.27524 1.85259 3.62655C1.81296 3.68483 1.7348 3.70127 1.67565 3.66274L1.35024 3.4501V3.44997Z" fill="#C6A465"/>
        <path d="M7.50585 14.5344C3.61806 14.5344 0.455078 11.3714 0.455078 7.48352C0.455078 3.59559 3.61793 0.432617 7.50585 0.432617C11.3938 0.432617 14.5568 3.59559 14.5568 7.48352C14.5568 11.3714 11.3938 14.5344 7.50585 14.5344ZM7.50585 0.465011C3.63585 0.465011 0.48735 3.61351 0.48735 7.48352C0.48735 11.3535 3.63585 14.502 7.50585 14.502C11.3759 14.502 14.5244 11.3535 14.5244 7.48352C14.5244 3.61351 11.3759 0.465011 7.50585 0.465011Z" fill="#C6A465"/>
        <path d="M8.02362 7.42388L8.54267 6.52617L7.51059 4.72461L6.47852 6.52617L6.99756 7.42388L6.99645 7.95937H6.61999L6.93989 8.55498L7.28984 7.96796L7.51059 8.36442L7.73134 7.96796L8.08129 8.55498L8.40119 7.95937H8.02473L8.02362 7.42388ZM7.51108 7.78905L7.14763 7.15958L6.78417 6.5301L7.14763 5.90062L7.51108 5.27114L7.87429 5.90062L8.23774 6.5301L7.87429 7.15958L7.51108 7.78905Z" fill="#C6A465"/>
        <path d="M7.29254 8.22957L7.29193 8.2303L7.01289 8.69217L7.24922 9.13243L7.24812 9.1344H7.1059L6.92994 8.82947L6.85338 8.69671L6.51226 8.10563L5.89308 9.13452H5.74878L6.01358 8.67585L6.19666 8.35902H5.47466L5.61687 8.61449H5.75308L5.59982 8.87721L5.55123 8.79315L5.21685 8.21472H6.27973L6.42722 7.95937L5.80326 7.95912L5.51724 7.51064L5.84265 6.94656L3.53125 5.80957L4.4632 7.42376L4.73965 7.9028L4.77229 7.95912V7.95937L5.18606 8.67572L5.4549 9.14127L5.5997 9.3922L7.50973 9.24925L9.41976 9.3922L9.56455 9.14127L9.8334 8.67572L10.2472 7.95937V7.95912L10.2798 7.9028L10.5563 7.42376L11.4882 5.80957L9.1768 6.94656L9.50222 7.51064L9.21619 7.95912L8.59224 7.95937L8.73973 8.21472H9.8026L9.46823 8.79315L9.41964 8.87721L9.26638 8.61449H9.40258L9.5448 8.35902H8.8228L9.00588 8.67585L9.27067 9.13452H9.12637L8.5072 8.10563L8.16608 8.69671L8.08951 8.82947L7.91355 9.1344H7.77134L7.77023 9.13243L8.00656 8.69217L7.72753 8.2303L7.72692 8.22932L7.50936 8.58676L7.2918 8.22957H7.29254ZM5.01967 7.87237L4.18269 6.42261L5.4857 7.0635L5.01967 7.87237ZM6.20316 9.1344L6.35838 8.86567L6.5136 8.59682L6.66858 8.86567L6.8238 9.1344H6.20328H6.20316ZM8.19663 9.1344L8.35186 8.86567L8.50683 8.59682L8.66205 8.86567L8.81728 9.1344H8.19676H8.19663ZM9.99783 7.87237L9.53191 7.0635L10.8348 6.42261L9.99783 7.87237Z" fill="#C6A465"/>
        <path d="M9.34209 9.52671L9.18404 9.80071L7.51022 9.67555L5.83566 9.80083L5.67773 9.52683L7.51022 9.38965L9.34209 9.52671Z" fill="#C6A465"/>
        <mask id="mask0_2640_9227" style="mask-type:luminance" maskUnits="userSpaceOnUse" x="0" y="0" width="15" height="15">
            <path d="M7.50031 14.9996C11.6361 14.9996 14.9889 11.6469 14.9889 7.51105C14.9889 3.37522 11.6361 0.0224609 7.50031 0.0224609C3.36447 0.0224609 0.0117188 3.37522 0.0117188 7.51105C0.0117188 11.6469 3.36447 14.9996 7.50031 14.9996Z" fill="white"/>
        </mask>
        <g mask="url(#mask0_2640_9227)">
            <path d="M16.8113 -1.34442L9.42383 -5.0293L-0.770303 15.408L6.61718 19.0929L16.8113 -1.34442Z" fill="url(#paint0_linear_2640_9227)"/>
        </g>
    </g>
    <defs>
        <linearGradient id="paint0_linear_2640_9227" x1="4.32146" y1="5.21145" x2="11.7118" y2="8.89775" gradientUnits="userSpaceOnUse">
            <stop stop-color="white" stop-opacity="0"/>
            <stop offset="0.19" stop-color="white" stop-opacity="0.01"/>
            <stop offset="0.31" stop-color="white" stop-opacity="0.04"/>
            <stop offset="0.41" stop-color="white" stop-opacity="0.1"/>
            <stop offset="0.5" stop-color="white" stop-opacity="0.18"/>
            <stop offset="0.52" stop-color="white" stop-opacity="0.19"/>
            <stop offset="0.62" stop-color="white" stop-opacity="0.11"/>
            <stop offset="0.72" stop-color="white" stop-opacity="0.05"/>
            <stop offset="0.84" stop-color="white" stop-opacity="0.01"/>
            <stop offset="1" stop-color="white" stop-opacity="0"/>
        </linearGradient>
        <clipPath id="clip0_2640_9227">
            <rect width="15" height="15" fill="white"/>
        </clipPath>
    </defs>
</svg>