<svg width="23" height="24" viewBox="0 0 23 24" fill="none" xmlns="http://www.w3.org/2000/svg">
    <path d="M19.5776 3.0388C18.447 4.16511 17.3489 5.25899 16.3586 6.24435C15.3356 5.7866 14.3465 5.16295 13.2685 4.89603C10.2948 4.16012 7.28987 5.5521 5.72354 8.22755C4.01823 11.1412 4.54034 14.7434 6.99939 17.0385C9.42088 19.2986 13.2372 19.5792 15.9867 17.6983C17.1348 16.9137 18.0789 15.3708 18.1265 14.1285C17.8961 14.1061 17.6607 14.0624 17.4253 14.0624C15.7613 14.0562 14.0986 14.0462 12.4346 14.0674C11.9551 14.0736 11.7698 13.9277 11.7848 13.43C11.8161 12.3748 11.8086 11.3171 11.7873 10.2619C11.7785 9.83033 11.9325 9.68315 12.3645 9.68439C15.6699 9.69687 18.9766 9.69562 22.2821 9.68439C22.6802 9.68315 22.8217 9.84031 22.8718 10.2182C23.7157 16.5907 20.3589 22.3756 13.8256 23.4071C6.80282 24.5147 0.438584 19.6216 0.0254037 12.5195C-0.262571 7.55526 1.90225 3.76224 6.29323 1.37741C10.4275 -0.868974 15.5472 -0.307691 19.1156 2.62345C19.2871 2.7644 19.4474 2.92031 19.5776 3.0388Z" fill="#F8F8F8"/>
</svg>
