<svg width="18" height="18" viewBox="0 0 18 18" fill="none" xmlns="http://www.w3.org/2000/svg">
    <path d="M9.00067 18C4.01998 17.9987 -0.00670053 13.9816 8.37116e-06 9.0215C0.00671727 4.00359 4.01864 -0.00402741 9.03153 3.03739e-06C13.9881 0.00403349 18.004 4.04389 18 9.02015C17.996 13.9897 13.976 18.0013 9.00067 18ZM8.96847 16.9897C9.52799 16.9185 10.0459 16.8392 10.5652 16.7922C10.8899 16.7626 10.9516 16.6149 10.8738 16.326C10.6309 15.4111 10.4055 14.4908 10.1586 13.5772C10.0982 13.3542 10.1613 13.2736 10.3639 13.1769C10.8416 12.9485 11.3246 12.712 11.7567 12.4098C12.0318 12.2176 12.1713 12.2297 12.39 12.4635C13.0139 13.1312 13.6647 13.7721 14.294 14.4344C14.4872 14.6373 14.6147 14.6346 14.8052 14.425C15.558 13.5987 16.1336 12.6704 16.4959 11.6104C16.6502 11.1603 16.626 11.1308 16.1631 11.0058C15.2815 10.7694 14.408 10.5087 13.5278 10.2682C13.3212 10.2118 13.2877 10.1205 13.3051 9.91088C13.3454 9.39095 13.3883 8.86162 13.336 8.34572C13.3011 7.99776 13.3977 7.8661 13.7076 7.79087C14.5624 7.58397 15.4117 7.35826 16.2651 7.14599C16.6596 7.04792 16.7038 6.99015 16.575 6.5992C16.2248 5.53919 15.6854 4.588 14.9542 3.74026C14.7435 3.49575 14.6026 3.5159 14.3906 3.72817C13.7398 4.38379 13.0676 5.01926 12.4155 5.67488C12.2303 5.86028 12.1123 5.86565 11.8909 5.70443C11.491 5.4129 11.0616 5.15226 10.6175 4.93059C10.2043 4.72369 10.1855 4.72504 10.3237 4.25616C10.5679 3.4232 10.804 2.58755 11.0308 1.74922C11.1395 1.34483 11.0939 1.31259 10.6779 1.22929C9.59374 1.01165 8.51361 0.999555 7.42408 1.20645C7.12621 1.26288 7.04972 1.36901 7.12352 1.65114C7.36236 2.5674 7.57839 3.48903 7.82796 4.4026C7.89907 4.66189 7.82796 4.72907 7.59717 4.8352C7.11681 5.05688 6.64585 5.31482 6.20977 5.61308C5.97362 5.77564 5.8448 5.78504 5.65159 5.58083C5.01558 4.91044 4.35677 4.26153 3.72479 3.58845C3.50742 3.35603 3.37056 3.37483 3.16661 3.60054C2.38569 4.4644 1.81678 5.44917 1.43571 6.5468C1.35118 6.78997 1.45182 6.89207 1.67723 6.95388C2.60038 7.20779 3.51816 7.47783 4.44264 7.72369C4.67209 7.78415 4.70027 7.89163 4.68953 8.1039C4.66135 8.64801 4.63854 9.19481 4.67075 9.73757C4.68685 10.009 4.61708 10.1245 4.37019 10.1863C3.50608 10.4013 2.646 10.6296 1.78055 10.8419C1.3163 10.9561 1.27873 10.9924 1.43706 11.4492C1.80202 12.5011 2.32934 13.4604 3.08074 14.2933C3.25785 14.4895 3.37459 14.5016 3.56244 14.3121C4.23869 13.635 4.93374 12.9754 5.60999 12.2983C5.78174 12.1263 5.88908 12.1451 6.0823 12.2781C6.53851 12.5898 7.00679 12.8961 7.50459 13.1299C7.77965 13.2588 7.77831 13.3865 7.71256 13.6162C7.45092 14.5257 7.20671 15.4407 6.93836 16.3475C6.86187 16.6041 6.94775 16.7049 7.18256 16.7371C7.7877 16.8218 8.39285 16.9051 8.96981 16.9857L8.96847 16.9897ZM4.81834 14.6292C4.82505 15.0699 5.23429 15.4702 5.65964 15.4554C6.10243 15.4393 6.49691 15.0336 6.48483 14.6064C6.47142 14.1549 6.09169 13.7895 5.63683 13.7909C5.19002 13.7909 4.81163 14.1805 4.81834 14.6292Z" fill="#9D9D9D"/>
</svg>
