<svg width="12" height="12" viewBox="0 0 12 12" fill="none" xmlns="http://www.w3.org/2000/svg">
    <path d="M8.99788 5.99857C8.99788 7.78775 8.99682 9.57694 8.99929 11.3661C8.99929 11.5395 8.96934 11.6971 8.83932 11.827C8.60957 12.0565 8.27131 12.0585 7.98941 11.828C7.38123 11.3311 6.77482 10.8324 6.16769 10.3344C5.52533 9.80706 4.88544 9.27735 4.23779 8.75566C4.16626 8.69788 4.05175 8.66147 3.95696 8.66081C2.87873 8.65413 1.80014 8.6568 0.721906 8.65646C0.219435 8.65646 0.000264273 8.45139 0.000264273 7.98013C-8.8091e-05 6.64651 -8.8091e-05 5.31289 0.000264273 3.9796C0.000264273 3.50299 0.214502 3.3006 0.717325 3.3006C1.81318 3.3006 2.90938 3.30327 4.00523 3.29625C4.1046 3.29559 4.22476 3.25551 4.29946 3.19472C5.52251 2.2001 6.73993 1.1988 7.95876 0.199162C8.23325 -0.025947 8.49153 -0.061016 8.74136 0.0979634C8.9408 0.22488 9.0007 0.410578 8.99999 0.631346C8.99682 2.24819 8.99823 3.86537 8.99823 5.48222C8.99823 5.65456 8.99823 5.82656 8.99823 5.9989L8.99788 5.99857Z" fill="#9D9D9D"/>
    <path d="M12 6.0009C11.9879 6.98311 11.7066 7.8919 11.1309 8.71872C10.971 8.9489 10.7169 9.0435 10.4522 8.98135C10.2125 8.92534 10.0184 8.73545 10.0085 8.49571C10.0033 8.36764 10.0397 8.2201 10.1099 8.11047C11.0107 6.7017 11.0129 5.29839 10.1055 3.89304C9.91361 3.59591 9.98934 3.25815 10.2849 3.08841C10.5835 2.91697 10.9368 2.99962 11.1408 3.29503C11.7096 4.11878 11.9882 5.02279 12 6.00056V6.0009Z" fill="#9D9D9D"/>
</svg>
