<svg width="18" height="10" viewBox="0 0 18 10" fill="none" xmlns="http://www.w3.org/2000/svg">
    <g clip-path="url(#clip0_444_22841)">
        <path d="M18 2.13727L15.8909 5.31773L15.2671 6.26134L15.1938 6.37103L14.2565 7.78397L13.6472 8.69959L13.3221 9.19436L8.99853 8.91382L4.67798 9.19436L4.3499 8.69959L3.74357 7.78397L2.80616 6.37103L2.73293 6.26134L2.10612 5.31773L0 2.13727L5.22868 4.37657L4.49343 5.48858L5.13785 6.37103L7.83562 6.20535L7.83856 5.31773L6.66398 3.54771L9.00147 0L11.336 3.54771L10.1614 5.31773L10.1644 6.20535L12.8592 6.37103L13.5066 5.48858L12.7714 4.37657L18 2.13727Z" fill="#C6A465"/>
        <path d="M13.1448 9.45982L12.7872 9.99958L9.00075 9.75303L5.21246 9.99997L4.85498 9.46021L9.00075 9.18994L13.1448 9.45982Z" fill="#C6A465"/>
    </g>
    <defs>
        <clipPath id="clip0_444_22841">
            <rect width="18" height="10" fill="white"/>
        </clipPath>
    </defs>
</svg>
