<svg width="26" height="26" viewBox="0 0 26 26" fill="none" xmlns="http://www.w3.org/2000/svg">
    <path d="M13.001 26C5.80664 25.9981 -0.00967855 20.1957 1.20917e-05 13.0311C0.00970273 5.78296 5.8047 -0.00581738 13.0455 4.38734e-06C20.205 0.00582615 26.0058 5.84117 26 13.0291C25.9942 20.2073 20.1876 26.0019 13.001 26ZM12.9545 24.5407C13.7627 24.4378 14.5108 24.3233 15.2608 24.2554C15.7299 24.2127 15.819 23.9993 15.7066 23.582C15.3558 22.2605 15.0302 20.9312 14.6736 19.6116C14.5864 19.2894 14.6775 19.173 14.9701 19.0333C15.6601 18.7034 16.3578 18.3618 16.9819 17.9252C17.3792 17.6477 17.5808 17.6652 17.8967 18.0028C18.7979 18.9673 19.7379 19.893 20.6469 20.8497C20.926 21.1427 21.1101 21.1388 21.3853 20.8361C22.4726 19.6426 23.3041 18.3017 23.8274 16.7706C24.0502 16.1205 24.0154 16.0778 23.3467 15.8973C22.0733 15.5558 20.8116 15.1793 19.5402 14.8319C19.2417 14.7504 19.1933 14.6185 19.2185 14.3157C19.2766 13.5647 19.3386 12.8001 19.2631 12.0549C19.2127 11.5523 19.3522 11.3621 19.7999 11.2535C21.0345 10.9546 22.2613 10.6286 23.494 10.322C24.0638 10.1803 24.1278 10.0969 23.9417 9.53217C23.4359 8.00105 22.6567 6.62711 21.6004 5.4026C21.2962 5.04941 21.0927 5.07852 20.7864 5.38514C19.8464 6.33214 18.8754 7.25004 17.9335 8.19705C17.666 8.46485 17.4955 8.47261 17.1757 8.23974C16.5981 7.81863 15.9779 7.44216 15.3364 7.12196C14.7395 6.82311 14.7123 6.82505 14.912 6.14779C15.2647 4.94462 15.6058 3.73758 15.9334 2.52665C16.0903 1.94253 16.0245 1.89596 15.4236 1.77564C13.8576 1.46127 12.2974 1.4438 10.7237 1.74265C10.2934 1.82416 10.1829 1.97746 10.2895 2.38499C10.6345 3.70847 10.9466 5.03971 11.307 6.35931C11.4098 6.73384 11.307 6.83087 10.9737 6.98418C10.2798 7.30438 9.59956 7.67697 8.96967 8.10778C8.62856 8.34259 8.4425 8.35618 8.16341 8.06121C7.24473 7.09285 6.29311 6.15555 5.38025 5.18331C5.06628 4.84759 4.86859 4.87476 4.57399 5.20078C3.446 6.44858 2.62424 7.87103 2.07381 9.45649C1.95171 9.80773 2.09707 9.95522 2.42267 10.0445C3.7561 10.4113 5.08178 10.8013 6.41715 11.1564C6.74857 11.2438 6.78927 11.399 6.77377 11.7056C6.73307 12.4916 6.70012 13.2814 6.74663 14.0654C6.76989 14.4574 6.66911 14.6243 6.31249 14.7135C5.06434 15.024 3.822 15.3539 2.57191 15.6605C1.90132 15.8255 1.84705 15.8779 2.07575 16.5377C2.60292 18.0572 3.3646 19.4428 4.44995 20.6459C4.70579 20.9292 4.8744 20.9467 5.14574 20.6731C6.12256 19.695 7.12651 18.7422 8.10332 17.7641C8.3514 17.5157 8.50645 17.5429 8.78555 17.735C9.44451 18.1853 10.1209 18.6277 10.84 18.9654C11.2373 19.1517 11.2353 19.336 11.1404 19.6679C10.7624 20.9816 10.4097 22.3032 10.0221 23.6131C9.9116 23.9837 10.0356 24.1293 10.3748 24.1758C11.2489 24.2981 12.123 24.4184 12.9564 24.5349L12.9545 24.5407ZM6.95983 21.1311C6.96952 21.7676 7.56065 22.3459 8.17503 22.3245C8.81462 22.3012 9.38443 21.7152 9.36698 21.0981C9.3476 20.446 8.79911 19.9182 8.14209 19.9201C7.49669 19.9201 6.95014 20.4829 6.95983 21.1311Z" fill="#C6A465"/>
</svg>
