<svg width="18" height="17" viewBox="0 0 18 17" fill="none" xmlns="http://www.w3.org/2000/svg">
<g clip-path="url(#clip0_104_843)">
<path d="M11.6784 5.21191L12.058 5.91436L12.0604 5.91269L11.6788 5.21191H11.6784ZM6.44079 11.9012L5.65269 10.4634L4.67499 8.68037L5.32692 7.47433L6.1075 6.0315L6.43802 5.42035H6.43683L6.10116 6.03651L5.31623 7.47725L4.66113 8.68037L5.63844 10.4634L6.42693 11.9012L6.85562 12.6841L8.9931 16.5828L9.00023 16.5698L6.44079 11.9012Z" fill="#FBF9ED"/>
<path d="M16.4685 4.30173L17.28 4.24295L18 2.70508L16.3767 2.82847L16.0193 3.59804L14.0001 5.02919L13.3898 4.77072L13.0038 4.16708L12.4243 5.32309H12.4299L12.435 5.32226H12.4358L12.929 5.29725L12.0598 5.91298L12.0574 5.91465L11.6778 5.2122H10.7888L10.8327 5.13174L9.0004 4.9875L7.16691 5.13174L7.21085 5.2122H6.3226L5.94261 5.91465L5.94063 5.9134L5.07138 5.29725L5.56419 5.32226H5.56498L5.57052 5.32309H5.57567L4.99657 4.16708L4.61064 4.77072L4.00026 5.02919L1.98074 3.59804L1.6237 2.82847L0 2.70508L0.720016 4.24295L1.53147 4.30173L3.551 5.73289L3.55654 6.42074L3.1706 7.02438L4.4052 7.15403H4.40599L4.40362 7.14903L4.19343 6.67129L5.15569 7.3533L5.15174 7.36081L4.43251 8.68065L5.47394 10.5804L1.8133 13.1742L1.11585 14.6637L2.69917 14.5433L6.26204 12.0182L8.99288 16.9999L9 16.987L9.00713 16.9999L11.738 12.0182L15.3012 14.5433L16.8846 14.6637L16.1867 13.1742L12.5261 10.5804L13.5675 8.68065L12.8487 7.36081L12.8443 7.35289L13.8066 6.67129L13.5964 7.14903L13.5944 7.15403L14.8294 7.02438L14.4435 6.42074L14.4486 5.73289L16.4681 4.30173H16.4685ZM13.3391 8.68065L12.3618 10.4637L11.5737 11.9015L11.1446 12.6844L9.00713 16.5831L9 16.5701L8.99288 16.5831L6.85539 12.6844L6.42671 11.9015L5.63821 10.4637L4.66091 8.68065L5.31601 7.47753L6.10094 6.03679L6.4366 5.42064H11.5634L11.8991 6.03679L12.684 7.47753L13.3391 8.68065Z" fill="#FBF9ED"/>
<path d="M9.00707 10.083L11.4315 11.801L11.0745 12.4521L9.00707 16.2233L6.94005 12.4521L6.58301 11.801L9.00707 10.083Z" fill="#FBF9ED"/>
<path d="M9.00707 10.083L11.4315 11.801L11.0745 12.4521L9.00707 16.2233L6.94005 12.4521L6.58301 11.801L9.00707 10.083Z" fill="#FBF9ED"/>
<path d="M13.1418 8.68076L12.2195 10.3629L10.4153 9.08472L9.00692 8.08671L7.59855 9.08472L5.79475 10.3629L4.87207 8.68076L5.47571 7.5802L6.26381 6.14279L6.54445 5.63086H11.4694L11.7496 6.14237L12.5381 7.5802L13.1418 8.68076Z" fill="#FBF9ED"/>
<path d="M12.6838 7.47725L11.8989 6.03651L11.5632 5.42035H11.5624L11.8925 6.0315L12.6731 7.47433L13.3254 8.68037L12.3473 10.4634L11.5592 11.9012L8.9998 16.5698L9.00693 16.5828L11.1444 12.6841L11.5735 11.9012L12.3616 10.4634L13.3389 8.68037L12.6838 7.47725ZM6.32161 5.21191L5.94043 5.91311L5.94241 5.91436L6.32241 5.21191H6.32161Z" fill="#FBF9ED"/>
<path d="M12.9798 1.14309L12.0472 2.84438L11.7713 3.34922L11.7392 3.408L11.3244 4.16339L11.0552 4.65323L10.9112 4.91795L8.99931 4.76787L7.08903 4.91795L6.94376 4.65323L6.67578 4.16339L6.26095 3.408L6.22889 3.34922L5.95141 2.84438L5.02002 1.14309L7.33246 2.34079L7.00709 2.93568L7.29209 3.408L8.48512 3.31921L8.48631 2.84438L7.96698 1.89764L9.00089 0L10.0332 1.89764L9.51349 2.84438L9.51507 3.31921L10.7065 3.408L10.9931 2.93568L10.6677 2.34079L12.9798 1.14309Z" fill="#FBF9ED"/>
</g>
<defs>
<clipPath id="clip0_104_843">
<rect width="18" height="17" fill="white"/>
</clipPath>
</defs>
</svg>
