<svg xmlns="http://www.w3.org/2000/svg" width="14" height="13" viewBox="0 0 14 13" fill="none">
    <path d="M7.54134 6.43951L8.01648 5.67203L7.07171 4.13184L6.12695 5.67203L6.60209 6.43951L6.60107 6.89731H6.25646L6.54929 7.40651L6.86964 6.90465L7.07171 7.24359L7.27379 6.90465L7.59414 7.40651L7.88697 6.89731H7.54235L7.54134 6.43951ZM7.07216 6.7517L6.73946 6.21354L6.40675 5.67539L6.73946 5.13723L7.07216 4.59908L7.40464 5.13723L7.73735 5.67539L7.40464 6.21354L7.07216 6.7517Z" fill="#C6A465"/>
    <path d="M6.87278 7.12849L6.87221 7.12912L6.61679 7.52397L6.83313 7.90037L6.83211 7.90205H6.70193L6.54086 7.64136L6.47077 7.52786L6.1585 7.02253L5.59171 7.90215H5.45962L5.70202 7.51002L5.8696 7.23916H5.20869L5.33887 7.45757H5.46355L5.32326 7.68217L5.27878 7.61031L4.97269 7.11579H5.94565L6.08066 6.89749L5.50949 6.89728L5.24766 6.51385L5.54555 6.03161L3.42969 5.05957L4.28279 6.43958L4.53586 6.84913L4.56574 6.89728V6.89749L4.9445 7.50992L5.1906 7.90792L5.32314 8.12245L7.07159 8.00024L8.82004 8.12245L8.95258 7.90792L9.19868 7.50992L9.57744 6.89749V6.89728L9.60732 6.84913L9.86039 6.43958L10.7135 5.05957L8.59763 6.03161L8.89552 6.51385L8.63369 6.89728L8.06252 6.89749L8.19753 7.11579H9.17049L8.8644 7.61031L8.81992 7.68217L8.67963 7.45757H8.80431L8.9345 7.23916H8.27358L8.44117 7.51002L8.68356 7.90215H8.55147L7.98468 7.02253L7.67242 7.52786L7.60232 7.64136L7.44125 7.90205H7.31107L7.31006 7.90037L7.52639 7.52397L7.27097 7.12912L7.2704 7.12828L7.07125 7.43386L6.8721 7.12849H6.87278ZM4.79219 6.82311L4.02602 5.58367L5.2188 6.13158L4.79219 6.82311ZM5.87556 7.90205L6.01765 7.67231L6.15974 7.44246L6.3016 7.67231L6.4437 7.90205H5.87567H5.87556ZM7.70038 7.90205L7.84248 7.67231L7.98434 7.44246L8.12643 7.67231L8.26852 7.90205H7.7005H7.70038ZM9.3492 6.82311L8.9227 6.13158L10.1154 5.58367L9.3492 6.82311Z" fill="#C6A465"/>
    <path d="M8.74888 8.23729L8.60421 8.47154L7.07199 8.36454L5.53909 8.47165L5.39453 8.2374L7.07199 8.12012L8.74888 8.23729Z" fill="#C6A465"/>
    <mask id="mask0_2640_34864" style="mask-type:luminance" maskUnits="userSpaceOnUse" x="0" y="0" width="14" height="13">
        <path d="M7.06405 12.9166C10.85 12.9166 13.9191 10.0503 13.9191 6.51447C13.9191 2.97865 10.85 0.112305 7.06405 0.112305C3.2781 0.112305 0.208984 2.97865 0.208984 6.51447C0.208984 10.0503 3.2781 12.9166 7.06405 12.9166Z" fill="white"/>
    </mask>
    <g mask="url(#mask0_2640_34864)">
        <path d="M15.5887 -1.05577L8.82617 -4.20605L-0.505547 13.2663L6.25696 16.4166L15.5887 -1.05577Z" fill="url(#paint0_linear_2640_34864)"/>
    </g>
    <defs>
        <linearGradient id="paint0_linear_2640_34864" x1="4.15546" y1="4.54899" x2="10.7288" y2="8.05969" gradientUnits="userSpaceOnUse">
            <stop stop-color="white" stop-opacity="0"/>
            <stop offset="0.19" stop-color="white" stop-opacity="0.01"/>
            <stop offset="0.31" stop-color="white" stop-opacity="0.04"/>
            <stop offset="0.41" stop-color="white" stop-opacity="0.1"/>
            <stop offset="0.5" stop-color="white" stop-opacity="0.18"/>
            <stop offset="0.52" stop-color="white" stop-opacity="0.19"/>
            <stop offset="0.62" stop-color="white" stop-opacity="0.11"/>
            <stop offset="0.72" stop-color="white" stop-opacity="0.05"/>
            <stop offset="0.84" stop-color="white" stop-opacity="0.01"/>
            <stop offset="1" stop-color="white" stop-opacity="0"/>
        </linearGradient>
    </defs>
</svg>