<svg width="26" height="23" viewBox="0 0 26 23" fill="none" xmlns="http://www.w3.org/2000/svg">
    <path d="M24.2995 1.15463C24.131 1.06736 23.9573 0.988827 23.7811 0.916638C22.5648 0.416864 21.2826 0.174117 19.9636 0.0646423C18.2194 -0.0805301 16.4933 0.0114918 14.7954 0.415277C13.7167 0.672304 12.6851 1.03642 11.8246 1.72421C11.4619 2.01376 11.1583 2.35488 11.0625 2.79674C10.9975 3.09819 11.0103 3.41551 11.0009 3.72568C10.9863 4.19849 11.1514 4.6221 11.5021 4.95925C11.7622 5.20914 12.0453 5.45189 12.3584 5.6391C13.6423 6.40701 15.0913 6.71798 16.5822 6.89092C17.8619 7.03847 19.1441 7.03371 20.4246 6.89251C21.6547 6.75685 22.8522 6.503 23.9727 5.99926C24.8735 5.59468 25.6664 5.08063 26 4.13899V2.87766C25.7297 2.05105 25.0711 1.55444 24.2995 1.15463ZM20.3314 4.39284L18.5 4.31589L16.6678 4.39364L16.495 4.22387L18.5 4.13899L20.5042 4.22387L20.3314 4.39284ZM21.8326 2.92129L21.5306 3.21798L21.4956 3.25288L21.0422 3.69633L20.7471 3.9843L20.5906 4.13978L18.4992 4.05173L16.4095 4.13978L16.2512 3.9843L15.9578 3.69633L15.5045 3.25288L15.4685 3.21798L15.1657 2.92129L14.147 1.92174L16.6755 2.62539L16.3205 2.97523L16.6319 3.25288L17.9363 3.20053L17.938 2.92129L17.3701 2.36519L18.5009 1.24982L19.63 2.36519L19.0611 2.92129L19.0629 3.20053L20.3665 3.25288L20.6795 2.97523L20.3237 2.62539L22.8522 1.92174L21.8326 2.92129Z" fill="#C6A465"/>
    <path d="M26 11.7237C25.6545 12.9226 24.7401 13.5049 23.7454 13.9759C22.6284 14.5052 21.4403 14.7613 20.2258 14.8997C18.9257 15.048 17.6282 15.0345 16.335 14.8413C14.8553 14.6202 13.4209 14.2437 12.1739 13.3252C11.9027 13.1257 11.6615 12.8696 11.4409 12.608C11.1227 12.2315 10.9918 11.7704 11.0004 11.2663C11.0081 10.8277 10.9619 10.3828 11.1338 10C11.4332 10.3244 11.7077 10.6929 12.0464 10.9751C12.9171 11.7021 13.9487 12.0805 15.0178 12.333C17.6359 12.9513 20.2429 12.9109 22.8217 12.094C23.6034 11.8459 24.3569 11.5116 24.9907 10.9571C25.3132 10.6758 25.58 10.3244 25.8734 10.0027C25.9059 10.0917 25.953 10.2193 26 10.3478V11.7237Z" fill="#C6A465"/>
    <path d="M26 19.7819C25.7126 20.753 25.0079 21.3184 24.1894 21.7658C23.1707 22.3232 22.0717 22.6209 20.941 22.8025C19.4314 23.0462 17.9158 23.0666 16.4028 22.8513C14.8984 22.6368 13.4375 22.2665 12.17 21.3414C11.8929 21.1394 11.6474 20.8789 11.4225 20.613C11.1257 20.2613 10.9965 19.8306 11.0025 19.3619C11.0085 18.9127 10.9538 18.4563 11.1556 18.0275C12.1854 19.5994 13.7908 20.0832 15.4423 20.4606C16.9023 20.7947 18.3845 20.8487 19.871 20.7194C21.2044 20.6033 22.5096 20.3401 23.7403 19.7748C24.5836 19.3876 25.3585 18.8994 25.8401 18C25.9016 18.1444 25.9512 18.2587 26 18.373V19.7819Z" fill="#C6A465"/>
    <path d="M26 7.7793C25.7238 8.7111 25.0593 9.27195 24.276 9.71567C23.2335 10.3067 22.1029 10.6155 20.939 10.8037C19.4296 11.0477 17.9143 11.0646 16.4014 10.8525C14.9733 10.6519 13.5853 10.2969 12.3547 9.47251C12.0554 9.27195 11.7826 9.01637 11.5329 8.75103C11.154 8.34725 10.9856 7.84585 11.001 7.2779C11.0121 6.85459 10.9642 6.42508 11.1566 6.02219C12.1786 7.59294 13.7795 8.07215 15.4188 8.45729C16.5511 8.72352 17.7073 8.80694 18.8669 8.77322C20.467 8.72707 22.0379 8.49723 23.5311 7.86183C24.4564 7.4687 25.3047 6.96286 25.8418 6C25.9017 6.14021 25.9504 6.25558 25.9991 6.37006V7.78107L26 7.7793Z" fill="#C6A465"/>
    <path d="M26 15.7949C25.5647 17.1109 24.5075 17.6887 23.3751 18.1499C21.662 18.8479 19.8676 19.0411 18.0424 18.9931C16.3951 18.9494 14.7906 18.6805 13.2682 17.9941C12.625 17.7038 12.0289 17.3352 11.5516 16.7868C11.1813 16.3603 10.9854 15.8671 11.0008 15.2865C11.012 14.861 10.9624 14.4291 11.1642 14C11.2574 14.1416 11.3344 14.2724 11.4242 14.3926C11.9357 15.0755 12.6319 15.4878 13.3803 15.8163C14.5323 16.3229 15.7426 16.5793 16.9836 16.6986C18.9234 16.8847 20.8358 16.7503 22.708 16.1662C23.482 15.9249 24.2347 15.6169 24.8744 15.0933C25.2379 14.796 25.5424 14.4194 25.876 14.0766C25.9008 14.1371 25.9504 14.2582 26 14.3793V15.7949Z" fill="#C6A465"/>
    <path d="M9 5.13858C7.30402 4.91157 5.64021 4.94971 3.99328 5.35561C2.94947 5.61351 1.94186 5.99127 1.06291 6.70864C0.573976 7.10729 0.155007 7.5813 0.0384034 8.28143C-0.0122589 8.58381 0.0215159 8.90255 0.00382434 9.2122C-0.0331672 9.8642 0.200844 10.3882 0.590864 10.8404C1.08542 11.4125 1.69257 11.7839 2.33992 12.079C3.79304 12.7419 5.31532 12.9889 6.86977 12.9998C7.57583 13.0043 8.28188 12.9398 9 12.9062V9.82515L8.95336 9.88145L6.98718 9.78065L5.02261 9.88145L4.87384 9.70347L4.59801 9.37384L4.1718 8.86532L4.13803 8.82627L3.85335 8.48665L2.8956 7.34157L5.27351 8.14794L4.93897 8.54749L5.23169 8.86532L6.45884 8.80538V8.48665L5.92568 7.84918L6.98879 6.57243L8.05028 7.84918L7.51632 8.48665V8.80538L8.74267 8.86532L9 8.58745V8.503L8.70246 8.14794L9 8.04714V5.13858ZM6.98798 9.87963L8.87214 9.9768L8.7097 10.1711L6.98798 10.0821L5.26547 10.1711L5.10302 9.9768L6.98798 9.87963Z" fill="#C6A465"/>
    <path d="M0.144033 16C1.10086 17.4809 2.57856 17.9891 4.10999 18.3718C5.90404 18.8203 7.72408 18.8755 9.55539 18.6503C9.59612 18.645 9.63772 18.6503 9.70793 18.6503C9.72093 19.3846 9.64986 20.125 10 20.8192C8.6003 21.0266 7.237 21.055 5.86937 20.9073C4.63867 20.7738 3.43918 20.5104 2.30208 19.9978C1.59573 19.68 0.937918 19.2849 0.443906 18.6548C0.146633 18.2757 -0.0241048 17.8485 0.00276251 17.351C0.0218296 16.995 0.0313632 16.6381 0.0556304 16.2821C0.0616972 16.1931 0.109365 16.1068 0.144899 16H0.144033Z" fill="#C6A465"/>
    <path d="M0.153388 12.0009C0.643258 12.9446 1.40581 13.4413 2.23916 13.8245C3.82218 14.5527 5.48645 14.794 7.18853 14.7709C7.78619 14.7629 8.38384 14.7132 9 14.6813V16.8562C8.7989 16.8837 8.59218 16.9209 8.38384 16.9386C6.42999 17.1072 4.50832 16.9475 2.64698 16.222C1.94395 15.9479 1.28194 15.5851 0.724501 15.0237C0.247501 14.5429 -0.0501208 13.9735 0.0069904 13.2329C0.0351438 12.8719 0.0632972 12.51 0.0946682 12.149C0.0978858 12.11 0.123626 12.0736 0.153388 12V12.0009Z" fill="#C6A465"/>
</svg>
