<svg width="16" height="11" viewBox="0 0 16 11" fill="none" xmlns="http://www.w3.org/2000/svg">
    <path d="M16 10C15.9526 9.97918 15.8923 9.96877 15.8595 9.93606C15.2302 9.31339 14.6042 8.68812 13.9774 8.06359C13.0081 7.09706 12.0387 6.13089 11.0698 5.16436C11.0495 5.14392 11.0299 5.12235 11 5.09076C11.1097 4.99856 11.2174 4.90786 11.3255 4.8179C12.8297 3.56847 14.334 2.31904 15.84 1.07072C15.8815 1.03615 15.9231 0.949533 16 1.03987V10Z" fill="#FBF9ED"/>
    <path d="M1 10.9996C2.59916 9.31476 4.16735 7.66221 5.74495 6C6.0676 6.24107 6.38516 6.4773 6.70193 6.71429C7.03948 6.9665 7.37704 7.21945 7.71459 7.47203C7.92512 7.62915 8.06978 7.62989 8.2811 7.47277C8.93425 6.98618 9.58661 6.49848 10.2543 6C11.8283 7.65812 13.4008 9.31513 15 11H1V10.9996Z" fill="#FBF9ED"/>
    <path d="M15 0C12.6523 2.34781 10.3315 4.66876 8 7C5.67246 4.67279 3.35124 2.35094 1 0H15Z" fill="#FBF9ED"/>
    <path d="M0.0595925 1C1.71178 2.3677 3.35154 3.72506 5 5.08943C3.34988 6.72727 1.70391 8.36068 0.051715 10C-0.0220843 9.83925 -0.0146214 1.16814 0.0595925 1Z" fill="#FBF9ED"/>
</svg>
