<svg width="20" height="191" viewBox="0 0 20 191" fill="none" xmlns="http://www.w3.org/2000/svg">
<path d="M10 180.111L8.14733 183.229L9.7939 183.229L11.5139 186.259L2.78886 186.259L5 182.501L10 174L15 182.501L20 191L-1.90735e-06 191L1.7825 187.97L14.6284 187.97L10 180.111Z" fill="#C6A465"/>
<path d="M10 10.8893L11.8527 7.771L10.2061 7.771L8.48608 4.74093L17.2111 4.74093L15 8.49946L10 17L5 8.49946L0 0L20 0L18.2175 3.03006L5.37163 3.03006L10 10.8893Z" fill="#C6A465"/>
<rect width="2" height="163" transform="matrix(-1 0 0 1 11 14)" fill="#C6A465"/>
</svg>
