<svg width="46" height="46" viewBox="0 0 46 46" fill="none" xmlns="http://www.w3.org/2000/svg">
    <mask id="mask0_2925_37242" style="mask-type:alpha" maskUnits="userSpaceOnUse" x="23" y="0" width="23" height="46">
        <path d="M46 23C46 10.2975 35.7026 2.91447e-06 23 1.80397e-06L23 46C35.7025 46 46 35.7025 46 23Z" fill="#D9D9D9"/>
    </mask>
    <g mask="url(#mask0_2925_37242)">
        <path d="M44.5931 22.9024C44.5931 34.7728 34.9163 44.4354 23.0202 44.4354C11.124 44.4354 1.44727 34.7724 1.44727 22.9024C1.44727 11.0324 11.124 1.36523 23.0202 1.36523C34.9163 1.36523 44.5931 11.0279 44.5931 22.902V22.9024Z" fill="#EDEDED"/>
        <path d="M23.0284 38.795C14.2668 38.795 7.13867 31.68 7.13867 22.9346C7.13867 14.1892 14.2668 7.07422 23.0284 7.07422C31.79 7.07422 38.9182 14.1892 38.9182 22.9346C38.9182 31.68 31.79 38.795 23.0284 38.795ZM23.0284 8.65999C15.1428 8.65999 8.72701 15.0636 8.72701 22.935C8.72701 30.8064 15.1424 37.2099 23.0284 37.2099C30.9144 37.2099 37.3298 30.8064 37.3298 22.935C37.3298 15.0636 30.9144 8.65999 23.0284 8.65999Z" fill="#C6A465"/>
        <path d="M22.9997 39.988C13.5777 39.988 5.9126 32.3371 5.9126 22.9325C5.9126 13.5279 13.5781 5.87695 22.9997 5.87695C32.4213 5.87695 40.0868 13.5283 40.0868 22.9325C40.0868 32.3367 32.4217 39.988 22.9997 39.988ZM22.9997 7.85861C14.6723 7.85861 7.89792 14.6209 7.89792 22.9325C7.89792 31.2441 14.6727 38.0064 22.9997 38.0064C31.3267 38.0064 38.1015 31.2441 38.1015 22.9325C38.1015 14.6209 31.3267 7.85861 22.9997 7.85861Z" fill="#C9C9C9"/>
        <path d="M22.9996 45.2299C10.6714 45.2299 0.64209 35.2191 0.64209 22.9138C0.64209 10.6085 10.6714 0.597656 22.9996 0.597656C35.3277 0.597656 45.357 10.6088 45.357 22.9138C45.357 35.2188 35.3277 45.2299 22.9996 45.2299ZM22.9996 1.39768C11.1136 1.39768 1.44359 11.0498 1.44359 22.9138C1.44359 34.7778 11.1136 44.4299 22.9996 44.4299C34.8855 44.4299 44.5555 34.7778 44.5555 22.9138C44.5555 11.0498 34.8855 1.39768 22.9996 1.39768Z" fill="#C9C9C9"/>
        <path d="M41.3009 29.8975C41.419 29.8772 41.5342 29.8764 41.6471 29.9121C41.8348 29.9715 41.9549 30.0965 41.991 30.2892C42.0279 30.4857 41.9624 30.652 41.8014 30.7715C41.6414 30.8898 41.4668 30.8996 41.2877 30.8124C41.1903 30.7647 41.1135 30.6926 41.0491 30.6066C41.0379 30.5916 41.0266 30.5766 41.01 30.5544C41.0002 30.6603 40.9829 30.755 40.9321 30.8414C40.8147 31.0415 40.5716 31.1332 40.3515 31.0573C40.1276 30.9803 39.9854 30.752 40.0301 30.521C40.0809 30.2592 40.2574 30.1089 40.502 30.0274C40.511 30.0244 40.5201 30.0225 40.5284 30.0162C40.3267 30.0184 40.1332 30.0631 39.9395 30.1424C40.0463 29.8941 40.1498 29.6537 40.2567 29.4058C40.3315 29.5989 40.432 29.7709 40.5709 29.9196C40.5125 29.8133 40.4821 29.6999 40.4821 29.5793C40.4817 29.3724 40.5479 29.1981 40.7334 29.0858C40.9171 28.9746 41.1643 29.0062 41.322 29.159C41.4777 29.31 41.5146 29.5553 41.4074 29.7397C41.3765 29.7927 41.3393 29.8415 41.3013 29.8971L41.3009 29.8975Z" fill="#C6A465"/>
        <path d="M30.6936 41.26C30.6587 41.352 30.6278 41.4418 30.5913 41.5285C30.5296 41.6743 30.4235 41.7776 30.2711 41.8249C30.0396 41.8962 29.803 41.8185 29.6573 41.6228C29.5196 41.438 29.4876 41.2352 29.5693 41.017C29.7247 40.6008 29.8793 40.1846 30.034 39.7685C30.0393 39.7546 30.0438 39.7407 30.0498 39.7227C30.1364 39.7613 30.2199 39.7982 30.3027 39.8357C30.6511 39.9935 31.0018 40.1467 31.3473 40.3112C31.7337 40.4949 31.8218 41.0692 31.4507 41.3257C31.2908 41.4361 31.1162 41.4463 30.9375 41.3708C30.8566 41.3366 30.7768 41.2987 30.6936 41.2611V41.26Z" fill="#C6A465"/>
        <path d="M29.5 4.72085C29.9993 4.69118 30.4328 4.50864 30.8054 4.16797C30.8358 4.66751 31.0187 5.10095 31.3593 5.47092C30.8584 5.50097 30.4246 5.68426 30.0539 6.02305C30.0227 5.52237 29.8402 5.09044 29.5 4.72085Z" fill="#C6A465"/>
        <path d="M40.6769 15.8921C40.6675 15.8816 40.66 15.8662 40.6483 15.8613C40.5952 15.8396 40.541 15.8208 40.4876 15.8005C40.319 15.737 40.2129 15.6191 40.1885 15.4395C40.1633 15.2529 40.237 15.1019 40.3853 14.9922C40.5365 14.8803 40.7062 14.8517 40.8869 14.9182C41.2462 15.0508 41.6052 15.1838 41.9642 15.3163C41.9747 15.3205 41.986 15.3235 42.0011 15.3284C41.9691 15.4001 41.939 15.4681 41.9085 15.5357C41.7745 15.832 41.6406 16.1284 41.5055 16.4244C41.3587 16.7459 40.9102 16.824 40.6735 16.5708C40.5505 16.4394 40.5222 16.249 40.599 16.0781C40.6268 16.0161 40.6517 15.9526 40.6776 15.8899L40.6769 15.8921Z" fill="#C6A465"/>
        <path d="M40.678 15.8904C40.5579 15.9941 40.468 16.1214 40.3897 16.2574C40.3502 16.3265 40.3179 16.3997 40.2806 16.4741C40.1794 16.2322 40.0785 15.9914 39.9766 15.748C40.0578 15.7747 40.1346 15.8093 40.2151 15.8239C40.3559 15.8495 40.4989 15.8626 40.6407 15.8814C40.6531 15.8829 40.6648 15.8885 40.6772 15.8923L40.678 15.89V15.8904Z" fill="#C6A465"/>
        <path d="M23.0281 40.0017C13.5846 40.0017 5.90186 32.3331 5.90186 22.9071C5.90186 13.4811 13.5846 5.8125 23.0281 5.8125C32.4716 5.8125 40.1547 13.4811 40.1547 22.9071C40.1547 32.3331 32.4719 40.0017 23.0281 40.0017ZM23.0281 5.91128C13.6392 5.91128 6.00082 13.5355 6.00082 22.9071C6.00082 32.2786 13.6392 39.9029 23.0281 39.9029C32.417 39.9029 40.0554 32.2786 40.0554 22.9071C40.0554 13.5355 32.417 5.91128 23.0281 5.91128Z" fill="#C6A465"/>
        <path d="M27.3112 2.04288C27.2668 2.25434 27.0618 2.38768 26.8491 2.34749C25.569 2.10448 24.2621 1.98165 22.9583 1.98165H22.9556C21.6819 1.98165 20.4021 2.09922 19.1453 2.33096C18.9327 2.3704 18.728 2.23556 18.6847 2.0241L18.4461 0.858241C18.4017 0.641521 18.5432 0.427055 18.7611 0.386866C20.1444 0.129957 21.5536 0 22.956 0H22.959C24.3946 0 25.8343 0.136342 27.2435 0.40527C27.4614 0.446962 27.6017 0.661804 27.5562 0.878524L27.3116 2.04325L27.3112 2.04288Z" fill="#C6A465"/>
        <path d="M27.5543 45.0367C27.5998 45.2534 27.4594 45.4682 27.2416 45.5099C25.832 45.7788 24.3926 45.9152 22.9571 45.9152H22.9541C21.5516 45.9152 20.1428 45.7852 18.7591 45.5283C18.5413 45.4877 18.3998 45.2737 18.4442 45.0569L18.6828 43.8911C18.726 43.6796 18.9307 43.5448 19.1433 43.5842C20.4002 43.816 21.6799 43.9335 22.9537 43.9335H22.9563C24.2602 43.9335 25.567 43.8107 26.8472 43.5677C27.0598 43.5275 27.2649 43.6608 27.3093 43.8723L27.5539 45.037L27.5543 45.0367Z" fill="#C6A465"/>
        <path d="M43.9534 27.2611C43.7416 27.2168 43.608 27.0121 43.6483 26.7999C43.8917 25.5221 44.0148 24.2177 44.0148 22.9162V22.9136C44.0148 21.6422 43.897 20.3648 43.6648 19.1103C43.6253 18.8981 43.7604 18.6938 43.9723 18.6506L45.1403 18.4124C45.3574 18.3681 45.5723 18.5093 45.6125 18.7268C45.8699 20.1075 46.0001 21.5141 46.0001 22.914V22.917C46.0001 24.3499 45.8635 25.7869 45.5941 27.1935C45.5523 27.411 45.3371 27.5511 45.12 27.5057L43.9531 27.2615L43.9534 27.2611Z" fill="#C6A465"/>
        <path d="M40.865 11.2121C40.684 11.3305 40.4443 11.2798 40.3224 11.1013C39.589 10.026 38.7521 9.01677 37.8302 8.09656L37.8283 8.09468C36.9275 7.1955 35.9393 6.37557 34.8864 5.65217C34.7081 5.52972 34.6588 5.29009 34.7781 5.1098L35.4351 4.1171C35.5574 3.93268 35.8091 3.88085 35.992 4.00592C37.1521 4.80069 38.2407 5.70325 39.2322 6.69295L39.2341 6.69483C40.2494 7.70819 41.1705 8.82033 41.9769 10.0053C42.1015 10.1883 42.0484 10.4395 41.8629 10.5609L40.865 11.2118V11.2121Z" fill="#C6A465"/>
        <path d="M34.7677 40.7892C34.6492 40.6085 34.7 40.3692 34.8787 40.2475C35.9561 39.5155 36.9672 38.6802 37.8891 37.76L37.891 37.7581C38.7918 36.8589 39.6133 35.8726 40.338 34.8217C40.4607 34.6436 40.7008 34.5944 40.8814 34.7135L41.8759 35.3693C42.0607 35.4914 42.1126 35.7426 41.9873 35.9252C41.1911 37.0831 40.2868 38.1697 39.2953 39.1594L39.2934 39.1613C38.2782 40.1747 37.164 41.0941 35.9768 41.8991C35.7935 42.0234 35.5418 41.9704 35.4202 41.7852L34.7681 40.7892H34.7677Z" fill="#C6A465"/>
        <path d="M23.0201 44.4894C11.0977 44.4894 1.39795 34.8076 1.39795 22.9068C1.39795 11.006 11.0973 1.32422 23.0201 1.32422C34.943 1.32422 44.6427 11.006 44.6427 22.9068C44.6427 34.8076 34.943 44.4894 23.0201 44.4894ZM23.0201 1.42338C11.1522 1.42338 1.49691 11.0608 1.49691 22.9068C1.49691 34.7528 11.1522 44.3903 23.0201 44.3903C34.8881 44.3903 44.5434 34.7528 44.5434 22.9068C44.5434 11.0608 34.8881 1.42338 23.0201 1.42338Z" fill="#C6A465"/>
        <path d="M24.6006 22.7233L26.1923 19.9755L23.0273 14.4609L19.8623 19.9755L21.454 22.7233L21.4506 24.3624H20.2962L21.2772 26.1856L22.3504 24.3887L23.0273 25.6023L23.7043 24.3887L24.7775 26.1856L25.7584 24.3624H24.604L24.6006 22.7233ZM23.0288 23.8411L21.9142 21.9143L20.7997 19.9875L21.9142 18.0607L23.0288 16.1339L24.1426 18.0607L25.2572 19.9875L24.1426 21.9143L23.0288 23.8411Z" fill="#C6A465"/>
        <path d="M22.3597 25.1907L22.3578 25.193L21.5021 26.6068L22.2269 27.9544L22.2235 27.9604H21.7874L21.2478 27.027L21.013 26.6206L19.9669 24.8114L18.0681 27.9608H17.6256L18.4376 26.5568L18.999 25.587H16.7849L17.2211 26.369H17.6387L17.1687 27.1732L17.0197 26.9159L15.9943 25.1453H19.2538L19.7061 24.3637L17.7926 24.3629L16.9155 22.9901L17.9134 21.2635L10.8252 17.7832L13.6831 22.7242L14.5309 24.1905L14.631 24.3629V24.3637L15.8999 26.5564L16.7243 27.9814L17.1684 28.7495L23.0258 28.312L28.8831 28.7495L29.3272 27.9814L30.1516 26.5564L31.4205 24.3637V24.3629L31.5206 24.1905L32.3684 22.7242L35.2263 17.7832L28.1381 21.2635L29.136 22.9901L28.2589 24.3629L26.3454 24.3637L26.7977 25.1453H30.0572L29.0318 26.9159L28.8828 27.1732L28.4128 26.369H28.8305L29.2666 25.587H27.0525L27.6139 26.5568L28.4259 27.9608H27.9834L26.0846 24.8114L25.0386 26.6206L24.8037 27.027L24.2641 27.9604H23.828L23.8246 27.9544L24.5494 26.6068L23.6937 25.193L23.6918 25.19L23.0246 26.2841L22.3575 25.1907H22.3597ZM15.3896 24.0974L12.8229 19.6597L16.8188 21.6214L15.3896 24.0974ZM19.019 27.9604L19.495 27.1378L19.971 26.3149L20.4463 27.1378L20.9223 27.9604H19.0194H19.019ZM25.1322 27.9604L25.6083 27.1378L26.0835 26.3149L26.5595 27.1378L27.0355 27.9604H25.1326H25.1322ZM30.6559 24.0974L29.2271 21.6214L33.2226 19.6597L30.6559 24.0974Z" fill="#C6A465"/>
        <path d="M28.6455 29.1617L28.1608 30.0004L23.0278 29.6173L17.8925 30.0008L17.4082 29.1621L23.0278 28.7422L28.6455 29.1617Z" fill="#C6A465"/>
        <mask id="mask1_2925_37242" style="mask-type:luminance" maskUnits="userSpaceOnUse" x="0" y="0" width="46" height="46">
            <path d="M22.999 45.9987C35.6821 45.9987 45.9638 35.7168 45.9638 23.0335C45.9638 10.3502 35.6821 0.0683594 22.999 0.0683594C10.3159 0.0683594 0.0341797 10.3502 0.0341797 23.0335C0.0341797 35.7168 10.3159 45.9987 22.999 45.9987Z" fill="white"/>
        </mask>
        <g mask="url(#mask1_2925_37242)">
            <path d="M51.5527 -4.12152L28.8979 -15.4219L-2.36379 47.253L20.291 58.5534L51.5527 -4.12152Z" fill="url(#paint0_linear_2925_37242)"/>
        </g>
    </g>
    <mask id="mask2_2925_37242" style="mask-type:alpha" maskUnits="userSpaceOnUse" x="0" y="0" width="23" height="46">
        <path d="M0 23C0 35.7025 10.2975 46 23 46V0C10.2975 0 0 10.2975 0 23Z" fill="#D9D9D9"/>
    </mask>
    <g mask="url(#mask2_2925_37242)">
        <path d="M44.5934 22.9464C44.5934 34.8388 34.9166 44.5194 23.0203 44.5194C11.1241 44.5194 1.44727 34.8385 1.44727 22.9464C1.44727 11.0543 11.1241 1.36914 23.0203 1.36914C34.9166 1.36914 44.5934 11.0497 44.5934 22.946V22.9464Z" fill="#464648"/>
        <path d="M23.0285 38.8676C14.2669 38.8676 7.13867 31.7395 7.13867 22.9778C7.13867 14.2161 14.2669 7.08789 23.0285 7.08789C31.7902 7.08789 38.9184 14.2161 38.9184 22.9778C38.9184 31.7395 31.7902 38.8676 23.0285 38.8676ZM23.0285 8.67661C15.1429 8.67661 8.72702 15.0921 8.72702 22.9781C8.72702 30.8642 15.1425 37.2797 23.0285 37.2797C30.9146 37.2797 37.3301 30.8642 37.3301 22.9781C37.3301 15.0921 30.9146 8.67661 23.0285 8.67661Z" fill="#C6A465"/>
        <path d="M22.9994 40.0612C13.5773 40.0612 5.91211 32.3961 5.91211 22.974C5.91211 13.5519 13.5776 5.88672 22.9994 5.88672C32.4211 5.88672 40.0866 13.5523 40.0866 22.974C40.0866 32.3957 32.4215 40.0612 22.9994 40.0612ZM22.9994 7.87206C14.6719 7.87206 7.89745 14.6469 7.89745 22.974C7.89745 31.301 14.6723 38.0759 22.9994 38.0759C31.3264 38.0759 38.1013 31.301 38.1013 22.974C38.1013 14.6469 31.3264 7.87206 22.9994 7.87206Z" fill="#6F7073"/>
        <path d="M22.9993 45.313C10.671 45.313 0.641602 35.2835 0.641602 22.9553C0.641602 10.6271 10.671 0.597656 22.9993 0.597656C35.3275 0.597656 45.3569 10.6275 45.3569 22.9553C45.3569 35.2832 35.3275 45.313 22.9993 45.313ZM22.9993 1.39917C11.1132 1.39917 1.44311 11.0692 1.44311 22.9553C1.44311 34.8414 11.1132 44.5115 22.9993 44.5115C34.8853 44.5115 44.5554 34.8414 44.5554 22.9553C44.5554 11.0692 34.8853 1.39917 22.9993 1.39917Z" fill="#6F7073"/>
        <path d="M4.72197 15.9713C4.60494 15.9973 4.49017 16.0041 4.37577 15.974C4.18537 15.9243 4.05931 15.805 4.0134 15.6138C3.96674 15.4189 4.02356 15.2492 4.17859 15.122C4.33212 14.9956 4.50635 14.9772 4.68923 15.0554C4.78895 15.0979 4.8691 15.1664 4.93796 15.2496C4.95 15.2643 4.96204 15.2786 4.97973 15.3C4.98424 15.1935 4.99666 15.0979 5.04295 15.0088C5.15019 14.8026 5.38839 14.6983 5.61191 14.7634C5.83919 14.8293 5.9931 15.0505 5.95998 15.2842C5.92235 15.5487 5.75377 15.7079 5.51369 15.802C5.50504 15.8054 5.49601 15.808 5.48811 15.8144C5.68942 15.802 5.88058 15.7478 6.06986 15.6586C5.97579 15.9123 5.88435 16.158 5.79027 16.4116C5.70598 16.2223 5.59648 16.0552 5.45085 15.913C5.51445 16.0165 5.55057 16.1282 5.55697 16.249C5.56788 16.456 5.51068 16.6336 5.33081 16.7555C5.1532 16.8759 4.90447 16.8568 4.73928 16.7119C4.57634 16.5685 4.52667 16.325 4.62488 16.135C4.6531 16.0805 4.6881 16.0297 4.72272 15.9721L4.72197 15.9713Z" fill="#C6A465"/>
        <path d="M15.3562 4.63907C15.3897 4.54613 15.4194 4.45619 15.4552 4.36852C15.515 4.22138 15.6196 4.11677 15.7713 4.06748C16.0016 3.99297 16.2394 4.06748 16.3876 4.26165C16.5276 4.4449 16.5626 4.64773 16.484 4.86749C16.3342 5.2863 16.1852 5.7055 16.0362 6.12469C16.0313 6.13861 16.0268 6.15254 16.0208 6.17098C15.9335 6.13335 15.8495 6.0976 15.7664 6.0611C15.4157 5.90757 15.0631 5.75893 14.7154 5.59901C14.3267 5.42026 14.2307 4.84604 14.5984 4.58413C14.7568 4.47125 14.9314 4.45883 15.1113 4.53221C15.1925 4.56532 15.2727 4.6022 15.3566 4.6387L15.3562 4.63907Z" fill="#C6A465"/>
        <path d="M14.6631 40.4897C15.1624 40.4585 15.5952 40.2741 15.9666 39.9316C15.9986 40.4321 16.1829 40.8656 16.525 41.2351C16.0242 41.2667 15.591 41.4519 15.2215 41.7924C15.1888 41.2912 15.0048 40.8588 14.6631 40.4897Z" fill="#C6A465"/>
        <path d="M5.52944 30.3802C5.53885 30.3908 5.54675 30.4058 5.55841 30.4107C5.61147 30.4318 5.66604 30.4498 5.71985 30.4694C5.88918 30.5308 5.99718 30.647 6.02389 30.8269C6.05174 31.0135 5.98024 31.1659 5.83311 31.2777C5.68335 31.3917 5.51401 31.423 5.33264 31.3586C4.97177 31.2307 4.61052 31.1027 4.24966 30.9748C4.23874 30.971 4.22783 30.968 4.2124 30.9635C4.24326 30.8912 4.27223 30.8228 4.30196 30.7543C4.43178 30.4555 4.56123 30.1567 4.69256 29.8587C4.8348 29.5347 5.28221 29.45 5.52267 29.7006C5.64722 29.8305 5.67845 30.0209 5.60432 30.1932C5.57723 30.2557 5.55352 30.3197 5.52831 30.3825L5.52906 30.3802H5.52944Z" fill="#C6A465"/>
        <path d="M5.52832 30.3834C5.64685 30.278 5.73491 30.1489 5.81129 30.0116C5.85005 29.942 5.88129 29.8679 5.91741 29.793C6.02202 30.0338 6.12626 30.2735 6.23162 30.5162C6.14996 30.4906 6.07282 30.4571 5.99229 30.4436C5.85118 30.4199 5.70819 30.409 5.56595 30.392C5.55353 30.3905 5.54149 30.3853 5.52945 30.3815L5.5287 30.3838L5.52832 30.3834Z" fill="#C6A465"/>
        <path d="M23.0287 40.077C13.5852 40.077 5.90234 32.3941 5.90234 22.9506C5.90234 13.5071 13.5852 5.82422 23.0287 5.82422C32.4723 5.82422 40.1555 13.5071 40.1555 22.9506C40.1555 32.3941 32.4726 40.077 23.0287 40.077ZM23.0287 5.92318C13.6398 5.92318 6.00131 13.5616 6.00131 22.9506C6.00131 32.3396 13.6398 39.978 23.0287 39.978C32.4177 39.978 40.0561 32.3396 40.0561 22.9506C40.0561 13.5616 32.4177 5.92318 23.0287 5.92318Z" fill="#C6A465"/>
        <path d="M27.3113 2.04668C27.2669 2.25853 27.0618 2.39212 26.8492 2.35185C25.5691 2.10839 24.2622 1.98534 22.9583 1.98534H22.9557C21.6819 1.98534 20.4021 2.10312 19.1453 2.3353C18.9327 2.37481 18.728 2.23972 18.6847 2.02786L18.4461 0.859838C18.4017 0.642715 18.5432 0.427849 18.7611 0.387586C20.1444 0.130199 21.5536 0 22.9561 0H22.9591C24.3946 0 25.8343 0.136596 27.2436 0.406024C27.4615 0.447793 27.6018 0.663035 27.5563 0.880158L27.3117 2.04705L27.3113 2.04668Z" fill="#C6A465"/>
        <path d="M27.5543 45.1195C27.5999 45.3366 27.4595 45.5518 27.2416 45.5936C25.832 45.863 24.3927 45.9996 22.9571 45.9996H22.9541C21.5516 45.9996 20.1428 45.8694 18.7591 45.612C18.5413 45.5714 18.3998 45.3569 18.4442 45.1398L18.6828 43.9718C18.726 43.7599 18.9307 43.6248 19.1433 43.6643C20.4002 43.8965 21.68 44.0143 22.9537 44.0143H22.9564C24.2602 44.0143 25.5671 43.8912 26.8473 43.6478C27.0599 43.6075 27.265 43.7411 27.3094 43.953L27.5539 45.1199L27.5543 45.1195Z" fill="#C6A465"/>
        <path d="M0.880158 27.5538C0.663035 27.5994 0.447793 27.459 0.406024 27.2411C0.136596 25.8315 0 24.3922 0 22.9566V22.9536C0 21.5512 0.130199 20.1423 0.387586 18.7587C0.428226 18.5408 0.642715 18.3993 0.859838 18.4437L2.02786 18.6823C2.23972 18.7255 2.37481 18.9302 2.3353 19.1429C2.10312 20.3997 1.98534 21.6795 1.98534 22.9532V22.9559C1.98534 24.2597 2.10839 25.5666 2.35185 26.8468C2.39212 27.0594 2.25853 27.2645 2.04668 27.3089L0.879781 27.5535L0.880158 27.5538Z" fill="#C6A465"/>
        <path d="M10.5796 41.861C10.4585 42.0465 10.2067 42.0996 10.0231 41.975C8.83586 41.169 7.72165 40.2475 6.7064 39.2322L6.70452 39.2303C5.71298 38.2388 4.80874 37.1502 4.01249 35.99C3.88719 35.8072 3.93874 35.5554 4.12388 35.4331L5.11843 34.7761C5.29905 34.6568 5.53913 34.7061 5.6618 34.8845C6.38617 35.9374 7.20801 36.9255 8.10886 37.8264L8.11074 37.8283C9.03267 38.7502 10.0438 39.5874 11.1211 40.3205C11.2999 40.442 11.3503 40.6817 11.2321 40.8631L10.58 41.861H10.5796Z" fill="#C6A465"/>
        <path d="M4.13865 10.5791C3.95313 10.458 3.90008 10.2062 4.02463 10.0226C4.83066 8.83538 5.75221 7.72116 6.76746 6.70591L6.76934 6.70403C7.76088 5.71249 8.8495 4.80825 10.0096 4.01201C10.1925 3.8867 10.4442 3.93825 10.5665 4.12339L11.2236 5.11794C11.3428 5.29856 11.2936 5.53864 11.1152 5.66131C10.0623 6.38568 9.07415 7.20752 8.1733 8.10837L8.17142 8.11025C7.24949 9.03218 6.41223 10.0433 5.67921 11.1206C5.55766 11.2994 5.31796 11.3498 5.13659 11.2316L4.13865 10.5795V10.5791Z" fill="#C6A465"/>
        <path d="M23.0203 44.5736C11.0977 44.5736 1.39795 34.8738 1.39795 22.9509C1.39795 11.0279 11.0974 1.32812 23.0203 1.32812C34.9433 1.32812 44.6431 11.0279 44.6431 22.9509C44.6431 34.8738 34.9433 44.5736 23.0203 44.5736ZM23.0203 1.42747C11.1523 1.42747 1.49692 11.0829 1.49692 22.9509C1.49692 34.8189 11.1523 44.4743 23.0203 44.4743C34.8883 44.4743 44.5437 34.8189 44.5437 22.9509C44.5437 11.0829 34.8883 1.42747 23.0203 1.42747Z" fill="#C6A465"/>
        <path d="M24.5665 22.7661L26.1582 20.0131L22.9932 14.4883L19.8281 20.0131L21.4199 22.7661L21.4165 24.4082H20.262L21.243 26.2348L22.3162 24.4346L22.9932 25.6504L23.6701 24.4346L24.7433 26.2348L25.7243 24.4082H24.5698L24.5665 22.7661ZM22.9947 23.8859L21.8801 21.9555L20.7655 20.0251L21.8801 18.0947L22.9947 16.1643L24.1085 18.0947L25.2231 20.0251L24.1085 21.9555L22.9947 23.8859Z" fill="#C6A465"/>
        <path d="M22.3256 25.2377L22.3238 25.24L21.4681 26.6564L22.1928 28.0065L22.1894 28.0125H21.7533L21.2137 27.0774L20.9789 26.6703L19.9328 24.8577L18.034 28.0129H17.5914L18.4035 26.6063L18.9649 25.6347H16.7508L17.1869 26.4182H17.6046L17.1346 27.2238L16.9856 26.9661L15.9602 25.1922H19.2197L19.672 24.4091L17.7585 24.4084L16.8814 23.033L17.8793 21.3032L10.791 17.8164L13.649 22.7666L14.4968 24.2357L14.5969 24.4084V24.4091L15.8658 26.6059L16.6902 28.0336L17.1342 28.8031L22.9917 28.3648L28.8491 28.8031L29.2931 28.0336L30.1176 26.6059L31.3865 24.4091V24.4084L31.4866 24.2357L32.3344 22.7666L35.1923 17.8164L28.104 21.3032L29.102 23.033L28.2248 24.4084L26.3114 24.4091L26.7637 25.1922H30.0232L28.9977 26.9661L28.8487 27.2238L28.3787 26.4182H28.7964L29.2326 25.6347H27.0184L27.5799 26.6063L28.3919 28.0129H27.9494L26.0506 24.8577L25.0045 26.6703L24.7697 27.0774L24.2301 28.0125H23.7939L23.7906 28.0065L24.5153 26.6564L23.6596 25.24L23.6577 25.237L22.9906 26.3331L22.3234 25.2377H22.3256ZM15.3555 24.1423L12.7888 19.6964L16.7847 21.6618L15.3555 24.1423ZM18.9849 28.0125L19.4609 27.1884L19.9369 26.364L20.4122 27.1884L20.8882 28.0125H18.9852H18.9849ZM25.0982 28.0125L25.5742 27.1884L26.0495 26.364L26.5255 27.1884L27.0015 28.0125H25.0986H25.0982ZM30.6218 24.1423L29.193 21.6618L33.1886 19.6964L30.6218 24.1423Z" fill="#C6A465"/>
        <path d="M28.6119 29.2152L28.1272 30.0555L22.9941 29.6717L17.8588 30.0559L17.3745 29.2156L22.9941 28.7949L28.6119 29.2152Z" fill="#C6A465"/>
        <mask id="mask3_2925_37242" style="mask-type:luminance" maskUnits="userSpaceOnUse" x="0" y="0" width="46" height="46">
            <path d="M22.965 45.9984C35.6482 45.9984 45.93 35.7166 45.93 23.0334C45.93 10.3501 35.6482 0.0683594 22.965 0.0683594C10.2818 0.0683594 0 10.3501 0 23.0334C0 35.7166 10.2818 45.9984 22.965 45.9984Z" fill="white"/>
        </mask>
        <g mask="url(#mask3_2925_37242)">
            <path d="M51.5192 -4.12159L28.8643 -15.4219L-2.39774 47.2526L20.2572 58.5529L51.5192 -4.12159Z" fill="url(#paint1_linear_2925_37242)"/>
        </g>
    </g>
    <defs>
        <linearGradient id="paint0_linear_2925_37242" x1="13.2553" y1="15.9235" x2="35.919" y2="27.2279" gradientUnits="userSpaceOnUse">
            <stop stop-color="white" stop-opacity="0"/>
            <stop offset="0.14" stop-color="white" stop-opacity="0.01"/>
            <stop offset="0.23" stop-color="white" stop-opacity="0.04"/>
            <stop offset="0.3" stop-color="white" stop-opacity="0.1"/>
            <stop offset="0.37" stop-color="white" stop-opacity="0.18"/>
            <stop offset="0.43" stop-color="white" stop-opacity="0.29"/>
            <stop offset="0.49" stop-color="white" stop-opacity="0.41"/>
            <stop offset="0.52" stop-color="white" stop-opacity="0.5"/>
            <stop offset="0.54" stop-color="white" stop-opacity="0.44"/>
            <stop offset="0.6" stop-color="white" stop-opacity="0.31"/>
            <stop offset="0.66" stop-color="white" stop-opacity="0.19"/>
            <stop offset="0.73" stop-color="white" stop-opacity="0.11"/>
            <stop offset="0.8" stop-color="white" stop-opacity="0.05"/>
            <stop offset="0.88" stop-color="white" stop-opacity="0.01"/>
            <stop offset="1" stop-color="white" stop-opacity="0"/>
        </linearGradient>
        <linearGradient id="paint1_linear_2925_37242" x1="13.217" y1="15.9831" x2="35.8807" y2="27.2877" gradientUnits="userSpaceOnUse">
            <stop stop-color="white" stop-opacity="0"/>
            <stop offset="0.19" stop-color="white" stop-opacity="0.01"/>
            <stop offset="0.31" stop-color="white" stop-opacity="0.04"/>
            <stop offset="0.41" stop-color="white" stop-opacity="0.1"/>
            <stop offset="0.5" stop-color="white" stop-opacity="0.18"/>
            <stop offset="0.52" stop-color="white" stop-opacity="0.19"/>
            <stop offset="0.62" stop-color="white" stop-opacity="0.11"/>
            <stop offset="0.72" stop-color="white" stop-opacity="0.05"/>
            <stop offset="0.84" stop-color="white" stop-opacity="0.01"/>
            <stop offset="1" stop-color="white" stop-opacity="0"/>
        </linearGradient>
    </defs>
</svg>
