<svg xmlns="http://www.w3.org/2000/svg" width="41" height="41" viewBox="0 0 41 41" fill="none">
    <g clip-path="url(#clip0_142_792)">
        <path d="M0.820358 26.1874C1.89606 26.6213 2.94919 27.043 4.00026 27.4708C4.72287 27.7647 5.43522 28.0851 6.16399 28.3608C7.50041 28.8656 8.56791 29.4434 9.21251 30.964C10.2123 33.3157 12.9405 34.3943 15.4656 33.8915C17.8736 33.411 19.6965 31.4303 19.9778 28.9062C20.0578 28.1804 20.3247 27.6816 20.9529 27.2599C22.6978 26.0901 24.373 24.8128 26.1282 23.6572C26.7235 23.2659 27.4585 22.9598 28.1626 22.8747C32.0528 22.3962 35.1485 18.9618 35.0664 15.1158C34.9822 11.1725 31.7839 7.77057 27.8896 7.48471C23.868 7.18871 20.1749 9.95002 19.6144 13.8548C19.442 15.055 18.9883 16.0119 18.3232 16.9547C17.1941 18.5543 16.1204 20.1904 14.9585 21.7657C14.7245 22.084 14.2277 22.2583 13.8171 22.3921C13.2115 22.5908 12.5012 22.5685 11.9634 22.8666C11.1833 23.3004 10.5489 23.2254 9.76473 22.8929C6.86197 21.6602 3.93867 20.4742 1.00101 19.3267C0.206549 19.0165 -0.123964 18.7509 0.0382134 17.7616C1.34384 9.87095 5.66719 4.27534 13.1848 1.37211C25.0915 -3.22399 38.3182 4.19019 40.6317 16.5796C42.7051 27.6816 35.8013 38.0821 24.7302 40.5373C14.4822 42.808 3.70465 36.4927 0.760825 26.4875C0.746455 26.4348 0.781354 26.3679 0.820358 26.1874Z" fill="#C6A465"/>
        <path d="M27.2108 10.0879C30.0561 10.0758 32.4067 12.3728 32.4272 15.1828C32.4457 17.9481 30.05 20.3709 27.2806 20.3871C24.4518 20.4053 22.0376 17.9745 22.0786 15.1483C22.1176 12.3606 24.4107 10.1001 27.2129 10.0879H27.2108ZM27.1369 19.0713C29.2309 19.1443 31.0846 17.4372 31.1872 15.347C31.2858 13.3115 29.5285 11.4301 27.4325 11.3267C25.3407 11.2233 23.4931 12.8655 23.4068 14.903C23.3083 17.2183 24.8972 18.9923 27.1369 19.0713Z" fill="#C6A465"/>
        <path d="M10.4492 30.1416C11.3278 30.5005 11.9725 30.7722 12.6232 31.0256C14.4646 31.7412 16.304 31.0803 17.0143 29.4543C17.778 27.7027 16.9999 25.8963 15.1154 25.0752C14.44 24.7812 13.7523 24.5095 13.0153 24.2034C14.6781 23.3519 17.0533 24.2561 18.0449 26.0402C19.1842 28.0899 18.4328 30.7904 16.4087 31.9237C14.2943 33.1057 11.7856 32.4468 10.4513 30.1396L10.4492 30.1416Z" fill="#C6A465"/>
    </g>
    <defs>
        <clipPath id="clip0_142_792">
            <rect width="41" height="41" fill="white"/>
        </clipPath>
    </defs>
</svg>