<svg xmlns="http://www.w3.org/2000/svg" width="23" height="24" viewBox="0 0 23 24" fill="none">
    <g clip-path="url(#clip0_153_11989)">
        <path d="M0.400944 15.2768C1.84849 15.8989 3.24096 16.4933 4.62766 17.1016C4.72309 17.1438 4.81212 17.2751 4.84479 17.384C5.57433 19.825 8.21898 20.6734 10.1271 19.0544C10.8502 18.4409 11.2281 17.6155 11.2556 16.6457C11.262 16.4102 11.3331 16.2763 11.517 16.1423C12.6891 15.2873 13.8497 14.4158 15.0199 13.5588C15.123 13.4829 15.2703 13.4381 15.3984 13.4348C17.5313 13.376 19.3273 11.6574 19.597 9.4915C19.932 6.80636 17.842 4.30133 15.0763 4.40095C13.1483 4.47022 11.3338 6.07734 11.0013 8.0724C10.9834 8.17993 10.9373 8.29209 10.9514 8.39501C11.0167 8.87464 10.7688 9.22298 10.5242 9.58518C9.7831 10.6817 9.05805 11.7894 8.31378 12.8839C8.24332 12.9875 8.0864 13.0792 7.9647 13.0858C7.38953 13.1161 6.85854 13.2744 6.35254 13.5542C6.24366 13.6142 6.06816 13.6366 5.95799 13.5898C4.05248 12.7843 2.15401 11.9616 0.249143 11.154C0.0467427 11.0683 -0.0230727 10.9713 0.00767167 10.7457C0.653304 6.01665 3.04304 2.59722 7.38632 0.856827C11.2915 -0.708074 15.0295 -0.105073 18.3999 2.46659C20.8389 4.32772 22.3063 6.86771 22.8226 9.93748C23.7692 15.5684 20.8741 21.0099 15.6988 23.1013C11.5637 24.7724 7.67135 24.0922 4.18699 21.2448C2.37179 19.7617 1.16571 17.8233 0.470759 15.5499C0.448982 15.4793 0.433609 15.4067 0.400303 15.2774L0.400944 15.2768Z" fill="#F8F8F8"/>
        <path d="M15.2613 11.9108C13.6587 11.9062 12.3937 10.5768 12.3982 8.90304C12.4027 7.23984 13.685 5.92168 15.2952 5.92432C16.8984 5.92696 18.1762 7.2814 18.1673 8.96902C18.1589 10.5953 16.8549 11.9148 15.2613 11.9101V11.9108ZM13.1085 8.90568C13.1072 10.1598 14.084 11.1884 15.2734 11.1864C16.4725 11.1844 17.4621 10.1638 17.4678 8.9235C17.4736 7.68648 16.4834 6.65003 15.2914 6.64542C14.0904 6.6408 13.1085 7.6568 13.1079 8.90568H13.1085Z" fill="#F8F8F8"/>
        <path d="M7.17745 14.1188C8.38352 13.6536 9.72283 14.2632 10.2301 15.4567C10.7521 16.6851 10.2512 18.1432 9.10153 18.7429C7.90635 19.3663 6.55423 18.9217 5.8042 17.5989C6.2628 17.7948 6.66504 17.9611 7.0628 18.1379C7.50603 18.3352 7.95374 18.415 8.42644 18.2586C9.1579 18.0165 9.66966 17.3455 9.71962 16.5558C9.7651 15.8255 9.33084 15.0741 8.6551 14.7574C8.18369 14.5364 7.69946 14.3424 7.17809 14.1174L7.17745 14.1188Z" fill="#F8F8F8"/>
    </g>
    <defs>
        <clipPath id="clip0_153_11989">
            <rect width="23" height="24" fill="white"/>
        </clipPath>
    </defs>
</svg>