<svg width="24" height="19" viewBox="0 0 24 19" fill="none" xmlns="http://www.w3.org/2000/svg">
<path d="M15.2587 18.9864C15.2587 18.3782 15.2587 17.7909 15.2587 17.2037C15.2587 16.1597 15.2714 15.1168 15.2549 14.0729C15.2321 12.5336 13.786 11.3413 11.971 11.3455C10.2081 11.3496 8.77841 12.5514 8.7594 14.0771C8.74165 15.5202 8.7556 16.9644 8.7556 18.4075C8.7556 18.5945 8.7556 18.7806 8.7556 19H1.70115C1.68468 18.8276 1.65679 18.6614 1.65679 18.4953C1.65426 15.191 1.64539 11.8868 1.6682 8.58145C1.672 8.08299 1.58582 7.65141 1.12828 7.31075C0.17645 6.60433 -0.0516852 5.72654 0.0091508 4.692C0.100405 3.14855 0.0332317 1.59883 0.0332317 0.0114949H5.84561V3.06495H8.89628V0.00626994H14.6301V3.12765H18.2371V0H23.9849C23.9849 0.212133 23.9849 0.399186 23.9849 0.585194C23.9849 2.06385 23.9583 3.54251 23.9988 5.02013C24.014 5.57502 23.886 6.04526 23.4006 6.43087C22.7162 6.97426 22.5502 7.62529 22.5616 8.40381C22.6097 11.7248 22.5818 15.0468 22.5818 18.3688C22.5818 18.559 22.5818 18.7492 22.5818 18.9864H15.2574H15.2587Z" fill="#9D9D9D"/>
</svg>
