<svg xmlns="http://www.w3.org/2000/svg" width="39" height="39" viewBox="0 0 39 39" fill="none">
    <path d="M0 0.00758952C0.239517 0.00758952 0.373768 0.00758952 0.508782 0.00758952C4.32579 0.00758952 8.1428 0.0109626 11.9598 0C12.2459 0 12.416 0.099507 12.5868 0.349961C15.239 4.24676 17.9012 8.13512 20.5618 12.026C20.6518 12.1576 20.7456 12.2849 20.8631 12.4485C21.5557 11.574 22.2316 10.7231 22.9059 9.87143C25.4269 6.68383 27.9464 3.49455 30.475 0.315387C30.5925 0.167813 30.8008 0.0227686 30.9678 0.021082C32.768 0 34.5689 0.00758952 36.3699 0.00927608C36.4424 0.00927608 36.5148 0.021082 36.6773 0.0354177C32.3035 5.56565 27.9792 11.0343 23.6359 16.5258C28.745 23.9981 33.8405 31.4501 39 38.9958C38.7834 38.9958 38.6628 38.9958 38.5431 38.9958C34.8024 38.9958 31.0616 38.9941 27.3209 39C27.0738 39 26.909 38.9334 26.748 38.6998C23.7999 34.4168 20.8417 30.1422 17.8852 25.8668C17.7791 25.7141 17.6678 25.5657 17.5358 25.3827C16.8264 26.2766 16.1338 27.1494 15.4419 28.023C12.6112 31.6002 9.7828 35.1791 6.94598 38.7504C6.85063 38.871 6.67748 38.9831 6.53941 38.9848C4.70108 39 2.86199 38.9941 1.02367 38.9924C0.976373 38.9924 0.92908 38.9747 0.80627 38.9502C5.46769 33.0557 10.0925 27.2067 14.7402 21.3299C9.84077 14.2438 4.95204 7.17125 0 0.00758952ZM7.01387 3.77115C7.14278 3.96341 7.21601 4.07473 7.29152 4.18351C10.747 9.18163 14.2024 14.1806 17.6579 19.1779C21.2445 24.3649 24.8327 29.5502 28.414 34.7414C28.5543 34.9447 28.6962 35.0147 28.9197 35.0113C29.7817 34.9986 30.6436 35.0071 31.5056 35.0045C31.6093 35.0045 31.7131 34.9851 31.8572 34.9708C31.7825 34.8511 31.742 34.7828 31.6978 34.717C27.4109 28.4464 23.1233 22.1774 18.8364 15.9068C16.1391 11.9611 13.4434 8.01453 10.7401 4.07388C10.6509 3.94318 10.4937 3.78633 10.3663 3.7838C9.27859 3.76103 8.19085 3.7703 7.01387 3.7703V3.77115Z" fill="#C6A465"/>
</svg>